<svg xmlns="http://www.w3.org/2000/svg" viewBox="0 0 500 500"><g id="freepik--background-complete--inject-118"><path d="M249.65,76.13c.65-4.68-6-8.53-10.92-8.93-2.37-.19-4.83.17-7.07-.61-4.86-1.69-6.8-8-11.54-10-3.54-1.5-7.63-.17-11.06,1.56s-6.83,3.91-10.67,4.16c-3.34.21-7-1-9.89.6-2.18,1.22-3.32,3.73-5.32,5.21s-4.53,1.75-7,1.88-5,.16-7.18,1.18-4,3.36-3.59,5.75Z" style="fill:#ebebeb"></path><path d="M445,161.84c.65-4.68-6-8.54-10.92-8.94-2.37-.19-4.83.18-7.07-.61-4.86-1.69-6.8-8-11.54-10-3.55-1.49-7.63-.16-11.06,1.57s-6.83,3.91-10.67,4.15c-3.34.21-7-1-9.89.61-2.18,1.21-3.32,3.72-5.32,5.2s-4.53,1.76-7,1.89-5,.16-7.18,1.17-4.05,3.36-3.59,5.76Z" style="fill:#ebebeb"></path><rect x="34.58" y="44.33" width="9.13" height="189.58" style="fill:#fafafa"></rect><rect x="174.71" y="44.33" width="9.13" height="189.58" style="fill:#fafafa"></rect><rect x="314.85" y="44.33" width="9.13" height="189.58" style="fill:#fafafa"></rect><rect x="454.99" y="44.33" width="9.13" height="189.58" style="fill:#fafafa"></rect><rect x="15.73" y="229.95" width="466.07" height="179.7" transform="translate(497.52 639.61) rotate(180)" style="fill:#fafafa"></rect><path d="M461,44.94c0,.15-95.37.26-213,.26s-213-.11-213-.26,95.35-.26,213-.26S461,44.8,461,44.94Z" style="fill:#f5f5f5"></path><path d="M380.39,409.51H368.8V254.86a5.8,5.8,0,0,1,5.8-5.8h0a5.8,5.8,0,0,1,5.79,5.8Z" style="fill:#e0e0e0"></path><path d="M412,409.51H400.41V254.86a5.8,5.8,0,0,1,5.79-5.8h0a5.8,5.8,0,0,1,5.8,5.8Z" style="fill:#e0e0e0"></path><path d="M404.12,249.63H376.34a2.09,2.09,0,0,1-2.09-2.09h0a2.09,2.09,0,0,1,2.09-2.08h27.78a2.08,2.08,0,0,1,2.08,2.08h0A2.08,2.08,0,0,1,404.12,249.63Z" style="fill:#e0e0e0"></path><path d="M382.66,252.33h0a2.84,2.84,0,0,1-2.83-2.84v-4.65a2.83,2.83,0,0,1,2.83-2.83h0a2.83,2.83,0,0,1,2.83,2.83v4.65A2.84,2.84,0,0,1,382.66,252.33Z" style="fill:#e0e0e0"></path><path d="M387.86,252.33h0a2.84,2.84,0,0,1-2.83-2.84v-4.65a2.83,2.83,0,0,1,2.83-2.83h0a2.83,2.83,0,0,1,2.83,2.83v4.65A2.83,2.83,0,0,1,387.86,252.33Z" style="fill:#e0e0e0"></path><path d="M393.06,252.33h0a2.84,2.84,0,0,1-2.83-2.84v-4.65a2.83,2.83,0,0,1,2.83-2.83h0a2.84,2.84,0,0,1,2.84,2.83v4.65A2.84,2.84,0,0,1,393.06,252.33Z" style="fill:#e0e0e0"></path><rect x="395.43" y="242.01" width="5.67" height="10.32" rx="2.83" style="fill:#e0e0e0"></rect><path d="M442.11,409.51H430.52V254.86a5.8,5.8,0,0,1,5.79-5.8h0a5.8,5.8,0,0,1,5.8,5.8Z" style="fill:#e0e0e0"></path><path d="M434.22,249.63H406.45a2.08,2.08,0,0,1-2.09-2.09h0a2.08,2.08,0,0,1,2.09-2.08h27.77a2.08,2.08,0,0,1,2.09,2.08h0A2.08,2.08,0,0,1,434.22,249.63Z" style="fill:#e0e0e0"></path><path d="M412.77,252.33h0a2.84,2.84,0,0,1-2.84-2.84v-4.65a2.84,2.84,0,0,1,2.84-2.83h0a2.83,2.83,0,0,1,2.83,2.83v4.65A2.84,2.84,0,0,1,412.77,252.33Z" style="fill:#e0e0e0"></path><path d="M418,252.33h0a2.84,2.84,0,0,1-2.84-2.84v-4.65A2.84,2.84,0,0,1,418,242h0a2.83,2.83,0,0,1,2.83,2.83v4.65A2.84,2.84,0,0,1,418,252.33Z" style="fill:#e0e0e0"></path><path d="M423.17,252.33h0a2.83,2.83,0,0,1-2.83-2.84v-4.65a2.83,2.83,0,0,1,2.83-2.83h0a2.83,2.83,0,0,1,2.83,2.83v4.65A2.84,2.84,0,0,1,423.17,252.33Z" style="fill:#e0e0e0"></path><path d="M428.37,252.33h0a2.83,2.83,0,0,1-2.83-2.84v-4.65a2.83,2.83,0,0,1,2.83-2.83h0a2.83,2.83,0,0,1,2.83,2.83v4.65A2.84,2.84,0,0,1,428.37,252.33Z" style="fill:#e0e0e0"></path><path d="M140.17,151.53c.65-4.68-6-8.53-10.92-8.93-2.37-.19-4.83.17-7.07-.61-4.86-1.7-6.8-8-11.54-10-3.54-1.5-7.62-.17-11.06,1.56s-6.83,3.91-10.67,4.15c-3.34.22-7-1-9.89.61-2.17,1.21-3.31,3.72-5.32,5.2s-4.52,1.76-7,1.89-5,.16-7.18,1.17S55.51,150,56,152.36Z" style="fill:#ebebeb"></path></g><g id="freepik--Floor--inject-118"><path d="M484.81,409.58c0,.15-105.14.26-234.8.26s-234.82-.11-234.82-.26,105.12-.26,234.82-.26S484.81,409.44,484.81,409.58Z" style="fill:#263238"></path></g><g id="freepik--Plants--inject-118"><path d="M108.55,393.82a11.45,11.45,0,0,1,2.14,1.86,33.72,33.72,0,0,1,4.25,5.34,33,33,0,0,1,3.07,6.1,11,11,0,0,1,.79,2.71,24.31,24.31,0,0,1-1.13-2.57,42,42,0,0,0-7.25-11.33A25.52,25.52,0,0,1,108.55,393.82Z" style="fill:#263238"></path><path d="M121.3,392.69a13.07,13.07,0,0,1,.17,2.48c.06,1.53.16,3.64.37,6s.48,4.42.69,5.93a13.75,13.75,0,0,1,.28,2.47,10.17,10.17,0,0,1-.64-2.41,56.94,56.94,0,0,1-1.07-11.95A10,10,0,0,1,121.3,392.69Z" style="fill:#263238"></path><path d="M134.72,395.38a36.82,36.82,0,0,0-8,14.79,9.13,9.13,0,0,1,.44-2.47,26.24,26.24,0,0,1,2.25-5.64,26.85,26.85,0,0,1,3.49-5A9.14,9.14,0,0,1,134.72,395.38Z" style="fill:#263238"></path><path d="M71.89,449.07A11.62,11.62,0,0,1,74,450.93a33.21,33.21,0,0,1,7.32,11.44,11,11,0,0,1,.79,2.71A27.18,27.18,0,0,1,81,462.51a42,42,0,0,0-7.25-11.33A22.09,22.09,0,0,1,71.89,449.07Z" style="fill:#263238"></path><path d="M84.63,447.94a13.07,13.07,0,0,1,.17,2.48c.06,1.53.16,3.64.37,6s.48,4.42.7,5.93a13.06,13.06,0,0,1,.27,2.47,10.17,10.17,0,0,1-.64-2.41,57.36,57.36,0,0,1-.85-5.95,56.45,56.45,0,0,1-.22-6A10.51,10.51,0,0,1,84.63,447.94Z" style="fill:#263238"></path><path d="M98.06,450.63a51,51,0,0,0-4.87,6.93,50.45,50.45,0,0,0-3.14,7.86,8.83,8.83,0,0,1,.43-2.47,26.67,26.67,0,0,1,2.26-5.64,26.07,26.07,0,0,1,3.48-5A9,9,0,0,1,98.06,450.63Z" style="fill:#263238"></path><path d="M396,450.42a11.62,11.62,0,0,1,2.13,1.86,33.16,33.16,0,0,1,4.25,5.34,32.41,32.41,0,0,1,3.07,6.1,11.29,11.29,0,0,1,.8,2.71,22.65,22.65,0,0,1-1.14-2.58,44.68,44.68,0,0,0-3.16-6,44.18,44.18,0,0,0-4.09-5.37A22.09,22.09,0,0,1,396,450.42Z" style="fill:#263238"></path><path d="M408.72,449.29a13.07,13.07,0,0,1,.17,2.48c.06,1.52.17,3.63.37,6s.48,4.42.7,5.93a13.06,13.06,0,0,1,.27,2.47,10.81,10.81,0,0,1-.64-2.41,57.36,57.36,0,0,1-.85-6,59.35,59.35,0,0,1-.22-6A11.23,11.23,0,0,1,408.72,449.29Z" style="fill:#263238"></path><path d="M422.15,452a51.49,51.49,0,0,0-4.86,6.93,49.54,49.54,0,0,0-3.15,7.86,8.66,8.66,0,0,1,.44-2.47,26.18,26.18,0,0,1,5.73-10.6A9,9,0,0,1,422.15,452Z" style="fill:#263238"></path><path d="M246.23,443.67a10.81,10.81,0,0,1,2.13,1.85A33.21,33.21,0,0,1,255.68,457a11,11,0,0,1,.79,2.71,25.75,25.75,0,0,1-1.13-2.57,42,42,0,0,0-7.25-11.33A22.92,22.92,0,0,1,246.23,443.67Z" style="fill:#263238"></path><path d="M259,442.53a13.07,13.07,0,0,1,.17,2.48c.06,1.53.16,3.64.37,6s.48,4.42.7,5.94a12.93,12.93,0,0,1,.27,2.47,10.58,10.58,0,0,1-.64-2.41,57.77,57.77,0,0,1-.85-6,56.71,56.71,0,0,1-.22-6A10.7,10.7,0,0,1,259,442.53Z" style="fill:#263238"></path><path d="M272.39,445.23a51,51,0,0,0-4.86,6.93,50.15,50.15,0,0,0-3.14,7.85,8.83,8.83,0,0,1,.43-2.47,26.62,26.62,0,0,1,2.26-5.63,26.18,26.18,0,0,1,3.48-5A8.79,8.79,0,0,1,272.39,445.23Z" style="fill:#263238"></path><path d="M64.36,369.42a7.63,7.63,0,0,1,4,4.48,13.53,13.53,0,0,1,.52,6.07c-.44,3.94-2.68,7.91-5.09,11.06-3.31-2.9-4.08-7.94-4.3-10.53-.36-4.09,1.47-11.69,4.91-11.08" style="fill:#FF725E"></path><path d="M67.61,397.53a6.5,6.5,0,0,1,2.1-6.19,8.63,8.63,0,0,1,6.38-2,3.61,3.61,0,0,1,2.79,1.25,2.77,2.77,0,0,1,.05,2.82,5.59,5.59,0,0,1-2.09,2.06c-2.87,1.8-6,3-9.23,2" style="fill:#FF725E"></path><path d="M63.35,409.6a5.25,5.25,0,0,1,.12-.81c.11-.57.24-1.3.4-2.18a23,23,0,0,1,2.26-7,14.06,14.06,0,0,1,5-5.33,9.77,9.77,0,0,1,2-.9,3.9,3.9,0,0,1,.59-.15.54.54,0,0,1,.21,0,13.92,13.92,0,0,0-2.74,1.26,14.38,14.38,0,0,0-4.87,5.29,24.81,24.81,0,0,0-2.31,6.89c-.2.91-.36,1.65-.49,2.16A4.36,4.36,0,0,1,63.35,409.6Z" style="fill:#263238"></path><path d="M63.48,375.33a2.19,2.19,0,0,1,0,.36c0,.26,0,.6.06,1,.05.88.1,2.16.15,3.74.1,3.15.18,7.51.16,12.33s-.14,9.18-.27,12.33c-.06,1.58-.13,2.86-.18,3.74,0,.41,0,.75-.07,1a2,2,0,0,1,0,.35,1.35,1.35,0,0,1,0-.35l0-1c0-.92.05-2.18.09-3.73.08-3.16.16-7.52.18-12.33s0-9.17-.07-12.33c0-1.55-.05-2.82-.06-3.73,0-.42,0-.76,0-1A1.48,1.48,0,0,1,63.48,375.33Z" style="fill:#263238"></path><path d="M61.87,399.92a15.24,15.24,0,0,0-8.32-11.15c-1.1-.53-2.55-.88-3.46,0s-.71,2.3-.26,3.45a13,13,0,0,0,12,8.08" style="fill:#FF725E"></path><path d="M54.09,392.5a5.62,5.62,0,0,1,.7.31c.23.11.5.24.8.42a11.65,11.65,0,0,1,1,.64,13,13,0,0,1,1.16.87A15.42,15.42,0,0,1,59,395.86a16.68,16.68,0,0,1,2.34,3,16.26,16.26,0,0,1,1.55,3.49,15.77,15.77,0,0,1,.39,1.62,11.52,11.52,0,0,1,.19,1.43,8.66,8.66,0,0,1,.06,1.2,6.21,6.21,0,0,1,0,.9,3.64,3.64,0,0,1-.08.76c-.07,0,.05-1.1-.15-2.84A11.76,11.76,0,0,0,63,404a14.38,14.38,0,0,0-.41-1.59A16.62,16.62,0,0,0,61.09,399a17.47,17.47,0,0,0-2.29-3c-.41-.4-.79-.79-1.19-1.12s-.78-.62-1.13-.89C55.06,393,54.06,392.56,54.09,392.5Z" style="fill:#263238"></path></g><g id="freepik--Sun--inject-118"><circle cx="408.51" cy="88.3" r="11.46" transform="translate(229.15 465.8) rotate(-76.78)" style="fill:#FF725E"></circle><path d="M406.88,113.93a45.48,45.48,0,0,1-.12-4.73,45.48,45.48,0,0,1,.12-4.73,45.48,45.48,0,0,1,.12,4.73A45.48,45.48,0,0,1,406.88,113.93Z" style="fill:#FF725E"></path><path d="M400.27,101.81c.06,0-1,2-2.4,4.41s-2.56,4.32-2.62,4.29,1-2,2.41-4.41S400.22,101.78,400.27,101.81Z" style="fill:#FF725E"></path><path d="M393.49,97.59a24.77,24.77,0,0,1-2.67,2.28A25.5,25.5,0,0,1,388,102a26.91,26.91,0,0,1,2.68-2.28A24.46,24.46,0,0,1,393.49,97.59Z" style="fill:#FF725E"></path><path d="M418.32,109.27a6,6,0,0,1-.31-1.16c-.16-.72-.4-1.72-.69-2.81s-.59-2.06-.81-2.77a6.94,6.94,0,0,1-.32-1.16,5.5,5.5,0,0,1,.48,1.1,27.34,27.34,0,0,1,.88,2.77,28.58,28.58,0,0,1,.63,2.84A5.91,5.91,0,0,1,418.32,109.27Z" style="fill:#FF725E"></path><path d="M429.94,101a40.38,40.38,0,0,1-3.39-2.8,43.8,43.8,0,0,1-3.23-3,38.58,38.58,0,0,1,3.39,2.8A39.33,39.33,0,0,1,429.94,101Z" style="fill:#FF725E"></path><path d="M434.4,89.68a8,8,0,0,1-1.39-.19c-.85-.15-2-.33-3.32-.48s-2.49-.24-3.35-.29A8,8,0,0,1,425,88.6a7.17,7.17,0,0,1,1.39,0c.87,0,2.06.07,3.37.22a32.4,32.4,0,0,1,3.33.55A7.21,7.21,0,0,1,434.4,89.68Z" style="fill:#FF725E"></path><path d="M434.41,78.54c0,.06-2.47.72-5.54,1.47s-5.59,1.3-5.6,1.24,2.46-.73,5.54-1.48S434.39,78.47,434.41,78.54Z" style="fill:#FF725E"></path><path d="M421.46,65.55c.05,0-1.14,1.93-2.66,4.23A49.06,49.06,0,0,1,416,73.87c-.05,0,1.13-1.93,2.65-4.23A47.66,47.66,0,0,1,421.46,65.55Z" style="fill:#FF725E"></path><path d="M408.6,62.83a10.47,10.47,0,0,1,0,1.58c0,1,0,2.31,0,3.79s0,2.82,0,3.79a10.37,10.37,0,0,1,0,1.57,10.27,10.27,0,0,1-.15-1.57c-.06-1-.11-2.31-.11-3.79s0-2.83.1-3.8A10.49,10.49,0,0,1,408.6,62.83Z" style="fill:#FF725E"></path><path d="M398.87,75c-.06,0-1.27-1.84-2.7-4.19s-2.55-4.27-2.49-4.3a49.68,49.68,0,0,1,2.7,4.18C397.81,73,398.92,74.92,398.87,75Z" style="fill:#FF725E"></path><path d="M393.05,79.9a5.93,5.93,0,0,1-1.22-.2c-.74-.15-1.77-.4-2.88-.73s-2.11-.67-2.82-1a5.61,5.61,0,0,1-1.13-.5,7.7,7.7,0,0,1,1.19.34c.72.23,1.72.55,2.83.88s2.12.6,2.85.8A6.06,6.06,0,0,1,393.05,79.9Z" style="fill:#FF725E"></path><path d="M390.51,88.7a27.62,27.62,0,0,1-3.66.48,28.11,28.11,0,0,1-3.68.23,27,27,0,0,1,3.66-.47A29.4,29.4,0,0,1,390.51,88.7Z" style="fill:#FF725E"></path></g><g id="freepik--Birds--inject-118"><path d="M113.23,91s-.56-.19-1.59-.42a12.52,12.52,0,0,0-4.45-.17,12,12,0,0,0-6,2.58A12.48,12.48,0,0,0,97,99.69l0,.07-.12.48-.18-.45a13.4,13.4,0,0,0-5.07-6.12,13,13,0,0,0-6.18-2.06A13.58,13.58,0,0,0,81,92c-1,.26-1.56.5-1.57.47l.39-.18A8,8,0,0,1,81,91.89a13.3,13.3,0,0,1,4.47-.51,13.07,13.07,0,0,1,6.33,2A13.57,13.57,0,0,1,97,99.67l-.31,0,0-.08A12.64,12.64,0,0,1,101,92.74a12.28,12.28,0,0,1,10.65-2.3,8.27,8.27,0,0,1,1.17.37A1.79,1.79,0,0,1,113.23,91Z" style="fill:#263238"></path><path d="M142.68,100.79s-.31-.09-.88-.21a7.39,7.39,0,0,0-2.43-.07,6.62,6.62,0,0,0-3.26,1.43,6.76,6.76,0,0,0-2.3,3.65v0l-.12.48-.19-.45a7.2,7.2,0,0,0-2.75-3.33,7,7,0,0,0-3.37-1.14,7.9,7.9,0,0,0-2.42.19c-.56.14-.86.26-.87.24a.88.88,0,0,1,.21-.12c.14-.06.35-.15.63-.24a7.31,7.31,0,0,1,2.47-.3,7.12,7.12,0,0,1,3.51,1.12,7.38,7.38,0,0,1,2.89,3.46l-.3,0v0a7,7,0,0,1,2.42-3.82,6.63,6.63,0,0,1,3.42-1.41,6.78,6.78,0,0,1,2.49.17,5,5,0,0,1,.64.22C142.62,100.74,142.69,100.78,142.68,100.79Z" style="fill:#263238"></path><path d="M126.29,51.31s-.31.35-.86,1a20.9,20.9,0,0,0-5.18,13.78v.14l-.33,0a17.88,17.88,0,0,0-2-5.93,18.6,18.6,0,0,0-3-4.13,18.85,18.85,0,0,0-2.65-2.24c-.67-.47-1.06-.7-1-.73a1.08,1.08,0,0,1,.3.15,8.08,8.08,0,0,1,.82.48A16.37,16.37,0,0,1,115,56a18.36,18.36,0,0,1,3.15,4.14,18,18,0,0,1,2.06,6l-.32,0v-.14A20.26,20.26,0,0,1,123.15,55a18.47,18.47,0,0,1,2.19-2.77c.28-.31.53-.52.69-.67S126.28,51.3,126.29,51.31Z" style="fill:#263238"></path></g><g id="freepik--Ball--inject-118"><circle cx="55.78" cy="244.04" r="11.74" style="fill:#e0e0e0"></circle><path d="M67.52,244a21.89,21.89,0,0,0-.46-2.84,11.75,11.75,0,0,0-4.29-6.35,11.53,11.53,0,0,0-10.91-1.61A10.7,10.7,0,0,0,49,234.81a10.58,10.58,0,0,0-2.42,2.44,11.45,11.45,0,0,0,0,13.58,11.48,11.48,0,0,0,5.33,4,11.53,11.53,0,0,0,10.91-1.61,11.75,11.75,0,0,0,4.29-6.35,21.89,21.89,0,0,0,.46-2.84,3.33,3.33,0,0,1,0,.75,5.37,5.37,0,0,1-.07.91,8.25,8.25,0,0,1-.22,1.23A11.65,11.65,0,0,1,63,253.52a11.85,11.85,0,0,1-5,2.27,12,12,0,0,1-6.29-.49,11.05,11.05,0,0,1-3-1.63,10.94,10.94,0,0,1-2.54-2.54,11.91,11.91,0,0,1,0-14.18,10.94,10.94,0,0,1,2.54-2.54,11.05,11.05,0,0,1,3-1.63,12,12,0,0,1,6.29-.49,11.85,11.85,0,0,1,5,2.27,11.65,11.65,0,0,1,4.25,6.59,8.25,8.25,0,0,1,.22,1.23,5.37,5.37,0,0,1,.07.91A3.33,3.33,0,0,1,67.52,244Z" style="fill:#263238"></path><path d="M66.3,239.2a3.3,3.3,0,0,1-.6.74,17,17,0,0,1-2,1.71,18.85,18.85,0,0,1-16.34,3.1,16.25,16.25,0,0,1-2.44-.88,2.73,2.73,0,0,1-.83-.47c0-.09,1.26.5,3.36,1a19.9,19.9,0,0,0,16-3C65.31,240.13,66.23,239.14,66.3,239.2Z" style="fill:#263238"></path><path d="M67.32,242.61a3.14,3.14,0,0,1-.63.74,16.94,16.94,0,0,1-2,1.73,19.83,19.83,0,0,1-16.77,3.07,16.11,16.11,0,0,1-2.51-.88,3.24,3.24,0,0,1-.86-.46c0-.09,1.29.5,3.45,1a21.49,21.49,0,0,0,8.56.2,21.22,21.22,0,0,0,7.92-3.22C66.29,243.55,67.26,242.54,67.32,242.61Z" style="fill:#263238"></path></g><g id="freepik--Character--inject-118"><path d="M391.42,409.08l29.1-7.87s17.77,26.94,23.29,26l-13.23-57-45.84,10.39Z" style="fill:#263238"></path><path d="M414,384.17a2.39,2.39,0,0,1,2.28-2.23,2.3,2.3,0,0,1,2.23,2.24,2.52,2.52,0,0,1-2.43,2.35,2.39,2.39,0,0,1-2.06-2.59" style="fill:#e0e0e0"></path><path d="M430.58,370.24,426,371.47l14.4,54.17s1.69,2.28,3.41,1.58Z" style="fill:#455a64"></path><path d="M420.44,402.2c.28-.07.08-1.49.66-3.07s1.58-2.58,1.41-2.81-1.68.56-2.35,2.48S420.2,402.32,420.44,402.2Z" style="fill:#fff"></path><path d="M424.3,407.6c.29,0,.48-1.31,1.44-2.53s2.14-1.78,2.06-2.05-1.69-.09-2.85,1.45S424,407.66,424.3,407.6Z" style="fill:#fff"></path><path d="M432.24,409.34c0-.27-1.48-.33-2.83.73s-1.67,2.51-1.41,2.58.89-.93,2-1.79S432.28,409.62,432.24,409.34Z" style="fill:#fff"></path><path d="M413.61,403.26c.23-.18-.45-1.37-.71-3s0-2.94-.32-3-1,1.32-.66,3.2S413.43,403.44,413.61,403.26Z" style="fill:#fff"></path><path d="M271.42,313.39c0,.94,8.14,46.76,12,59.3s9.23,35.22,18.82,41.23,102.14-12.38,102.14-12.38l-3.68-26.67-71,1.61-2.63-36.28,2.32-7.17s7.14-23.7,7.25-31.8-39.57-3.08-39.57-3.08Z" style="fill:#263238"></path><path d="M303.21,332.19c0,.14-5.53.62-12.37,1.06s-12.39.69-12.4.54,5.53-.62,12.37-1.06S303.2,332,303.21,332.19Z" style="fill:#455a64"></path><path d="M327.82,202.79s12.11,12.75,16.68,18.05,5,20.71-.29,24.24-25.52-5.93-25.52-5.93L307,218.44Z" style="fill:#ffbf9d"></path><path d="M331.31,244a6.48,6.48,0,0,1-1.37-.27,14.75,14.75,0,0,1-1.58-.44l-1-.32-1.07-.42a17.31,17.31,0,0,1-4.86-2.93,11.7,11.7,0,0,1-3.59-5.93,17.41,17.41,0,0,1-.67-3.56c-.09-1.16-.11-2.27-.18-3.32a13.78,13.78,0,0,0-1.26-5.37,16.57,16.57,0,0,0-3-4.19,4.67,4.67,0,0,1,1.07.91,12.23,12.23,0,0,1,2.22,3.12,13.74,13.74,0,0,1,1.41,5.49,26.77,26.77,0,0,0,.87,6.77,11.38,11.38,0,0,0,3.41,5.72,17.63,17.63,0,0,0,4.69,3C329.39,243.5,331.34,243.92,331.31,244Z" style="fill:#ff9a6c"></path><path d="M343.87,224.45c-.09.11-5.09-4-11.17-9.27s-10.92-9.56-10.83-9.67,5.1,4,11.17,9.27S344,224.34,343.87,224.45Z" style="fill:#ff9a6c"></path><path d="M280.14,162.62s5.3-2.77,12.9,1,38.31,32.73,38.31,32.73l-23.74,23.1-21.34-22Z" style="fill:#FF725E"></path><polygon points="227.99 173.4 224.52 183.88 212.59 192.4 226.67 236.78 266.19 288.07 334.94 272.44 326.94 253.81 295.84 198.56 280.14 162.62 267.14 165.93 255.68 162.34 227.99 173.4" style="fill:#FF725E"></polygon><path d="M215.71,191.51s-13.18,1.57-9.43,20,32.13,31.92,32.13,31.92l15.09-15.7-4.66-25.13Z" style="fill:#FF725E"></path><path d="M243.06,201.29a17.13,17.13,0,0,1-2.77-.91l-6.57-2.48c-2.56-1-4.9-1.78-6.6-2.35a20.24,20.24,0,0,1-2.74-1,13.74,13.74,0,0,1,2.85.65c1.73.48,4.1,1.25,6.67,2.21s4.87,1.92,6.52,2.63A16.54,16.54,0,0,1,243.06,201.29Z" style="fill:#263238"></path><path d="M253.83,188.87a6.81,6.81,0,0,1-1.17-.38l-3.17-1.2.24-.18a20.61,20.61,0,0,1,.17,5.72l0,.29-.27-.1-7.7-2.64c-4.81-1.68-9.15-3.22-12.29-4.36l-3.7-1.37a9.21,9.21,0,0,1-1.34-.57,6.87,6.87,0,0,1,1.41.38l3.75,1.22c3.17,1,7.53,2.53,12.34,4.2l7.68,2.7-.31.19a21.62,21.62,0,0,0,0-5.61l0-.3.28.12,3.11,1.34A6.69,6.69,0,0,1,253.83,188.87Z" style="fill:#263238"></path><path d="M264.82,167.29a6.73,6.73,0,0,1,.22,1.25c.1.8.23,2,.32,3.42a71.09,71.09,0,0,1-.23,11.35c-.1,1-.23,2-.36,3l0,.31-.3-.11a34.77,34.77,0,0,1-7.33-3.71l.29-.15a8.84,8.84,0,0,1-1,3.46,3.79,3.79,0,0,1-.72,1.09s.21-.42.54-1.18a9.45,9.45,0,0,0,.76-3.39l0-.32.27.18a39,39,0,0,0,7.31,3.54l-.35.21c.13-1,.25-1.94.35-3A87.8,87.8,0,0,0,265,172c0-1.45-.11-2.62-.15-3.43A5.31,5.31,0,0,1,264.82,167.29Z" style="fill:#263238"></path><path d="M308.14,230.89a1.93,1.93,0,0,1-.1.52l-.38,1.46c-.17.64-.39,1.41-.7,2.29s-.61,1.9-1.07,3-.9,2.29-1.5,3.54-1.24,2.57-2,3.95a73.11,73.11,0,0,1-5.46,8.51,72.25,72.25,0,0,1-6.68,7.6c-1.13,1.06-2.19,2.09-3.26,3s-2,1.71-3,2.42-1.81,1.31-2.57,1.85-1.45,1-2,1.3l-1.3.77a2.51,2.51,0,0,1-.47.24s.13-.13.41-.33l1.25-.85c.55-.36,1.21-.81,1.95-1.37s1.62-1.15,2.52-1.9,1.91-1.53,2.93-2.45,2.09-1.93,3.21-3a71,71,0,0,0,12.05-16c.72-1.36,1.43-2.65,2-3.9s1.1-2.42,1.55-3.5.8-2.07,1.13-2.94.59-1.63.78-2.26l.48-1.43A2,2,0,0,1,308.14,230.89Z" style="fill:#263238"></path><path d="M297.65,233.08a2.36,2.36,0,0,1-.13.46c-.13.35-.28.78-.46,1.3-.4,1.13-1.05,2.73-1.92,4.69a101.14,101.14,0,0,1-18.33,27.84c-1.46,1.56-2.68,2.79-3.55,3.61l-1,.93a2.19,2.19,0,0,1-.37.31s.09-.15.3-.38l.94-1c.83-.86,2-2.13,3.43-3.72a114,114,0,0,0,18.27-27.74c.9-1.93,1.6-3.51,2.06-4.62l.55-1.26C297.55,233.22,297.63,233.07,297.65,233.08Z" style="fill:#263238"></path><path d="M293,192.33a6,6,0,0,1,.62,1.11l1.53,3.1c1.3,2.62,3.13,6.22,5.26,10.13s4.18,7.38,5.68,9.89c.71,1.18,1.31,2.17,1.78,3a5.51,5.51,0,0,1,.6,1.12,6.06,6.06,0,0,1-.77-1c-.47-.67-1.13-1.66-1.92-2.89-1.59-2.46-3.68-5.92-5.83-9.84s-3.91-7.55-5.13-10.21c-.61-1.33-1.08-2.42-1.39-3.17A6.21,6.21,0,0,1,293,192.33Z" style="fill:#263238"></path><path d="M236,205.86a2.91,2.91,0,0,1,2.42-.34h0s7.18-7.77,21.57-13.85,28.91-16.09,28.91-16.09l6.18,11.25s-21.18,26.29-28.47,30.74S246.24,231,239.3,231.51s-9.89-.12-9.89-.12-3.44-8.45.2-16.23C231.49,211.41,233.34,207.62,236,205.86Z" style="fill:#ffbf9d"></path><path d="M238.44,205.52a4.57,4.57,0,0,0-1.26.11,6.43,6.43,0,0,0-2.79,2A30.12,30.12,0,0,0,229,217.7a22.15,22.15,0,0,0-.92,6.24,19.91,19.91,0,0,0,.68,5.12,25.88,25.88,0,0,0,1.8,4.42s-.09-.08-.22-.26a7.15,7.15,0,0,1-.53-.81,15.87,15.87,0,0,1-1.41-3.25,19.34,19.34,0,0,1-.8-5.21,21.65,21.65,0,0,1,.9-6.39,27.42,27.42,0,0,1,2.55-5.92,25,25,0,0,1,3-4.31,6.31,6.31,0,0,1,3-1.89,2.55,2.55,0,0,1,1,0A1,1,0,0,1,238.44,205.52Z" style="fill:#263238"></path><path d="M271.91,409.41s26.71,11.83,34.37,11.31c0,0,1.2,4.7,7.71,1.17,0,0,4.18,7.06,9.15,1.27,0,0,3.6,2.3,7.66-2.92l90.73-9.37a5.59,5.59,0,0,0,5-6.11h0a5.58,5.58,0,0,0-5.78-5c-21.59.87-102.58,4-111,2.34-9.72-1.93-30.18,1.77-34.6,3.41C275.14,405.48,269.8,407,271.91,409.41Z" style="fill:#e0e0e0"></path><path d="M271.91,409.41l-.22-.29a1.42,1.42,0,0,1-.27-1.08,2.59,2.59,0,0,1,1.2-1.47,10.06,10.06,0,0,1,2.5-1.16h0a62.11,62.11,0,0,1,8.59-2c3.55-.64,7.76-1.29,12.58-1.69,2.41-.21,5-.32,7.68-.29,1.36,0,2.74.1,4.16.26s2.84.4,4.3.52c5.91.28,12.35.2,19.24.11,13.77-.19,29.34-.66,46.17-1.22l26.13-.94,13.66-.53c1.16,0,2.29-.11,3.48-.12a5.79,5.79,0,0,1,3.39,1.19,5.85,5.85,0,0,1-.16,9.42,5.94,5.94,0,0,1-1.59.8,8.07,8.07,0,0,1-1.73.31l-6.74.69L401,413.25l-25.35,2.6-44.86,4.6.15-.08a10,10,0,0,1-3.53,3,5,5,0,0,1-4.41,0l.26,0c-.36.35-.69.73-1.07,1a5.94,5.94,0,0,1-1.25.81,4.07,4.07,0,0,1-2.9.35,6,6,0,0,1-2.46-1.41,9.59,9.59,0,0,1-1.77-2.11l.24.07a9,9,0,0,1-4.55,1.31,3.67,3.67,0,0,1-2.15-.76,3.62,3.62,0,0,1-1.26-1.84l.17.13a20.39,20.39,0,0,1-4.2-.46l-2-.44-1.88-.52c-2.47-.7-4.76-1.46-6.87-2.2-4.23-1.5-7.79-2.91-10.67-4.08s-5.08-2.12-6.55-2.77l-1.68-.74-.56-.27.58.23,1.69.7c1.49.62,3.7,1.54,6.59,2.69s6.45,2.53,10.68,4c2.12.73,4.4,1.48,6.86,2.16l1.88.51,2,.43a19.24,19.24,0,0,0,4.11.43h.14l0,.12a3.32,3.32,0,0,0,3.12,2.34,8.84,8.84,0,0,0,4.36-1.28l.14-.08.1.14a7.47,7.47,0,0,0,4,3.33,3.66,3.66,0,0,0,2.63-.32A5.5,5.5,0,0,0,322,424c.36-.3.67-.67,1-1l.12-.11.13.08a4.6,4.6,0,0,0,4,0,9.6,9.6,0,0,0,3.37-2.87l.05-.07h.09l44.84-4.67L401,412.74l13.25-1.37,6.74-.7a7.62,7.62,0,0,0,1.62-.28,5.49,5.49,0,0,0,1.45-.73A5.32,5.32,0,0,0,421.1,400c-1.12,0-2.31.08-3.45.12l-13.66.53-26.14.92c-16.83.53-32.4,1-46.18,1.13-6.89.07-13.33.13-19.26-.17-1.49-.12-3-.3-4.33-.53a38.7,38.7,0,0,0-4.11-.28c-2.69,0-5.25.06-7.65.26-4.82.37-9,1-12.58,1.61a64.48,64.48,0,0,0-8.57,2h0c-2,.62-3.44,1.51-3.67,2.52a1.38,1.38,0,0,0,.23,1C271.85,409.3,271.91,409.41,271.91,409.41Z" style="fill:#263238"></path><polygon points="362.16 402.15 362.77 373.68 371.1 373.72 372.25 401.45 362.16 402.15" style="fill:#e0e0e0"></polygon><polygon points="394.39 373.64 397.98 401.57 409.06 400.44 402.69 373.55 394.39 373.64" style="fill:#e0e0e0"></polygon><polygon points="329.71 375.9 306.57 403.81 323.93 409.63 324.06 408.29 333.49 375.35 329.71 375.9" style="fill:#e0e0e0"></polygon><path d="M307.5,402.19a18.54,18.54,0,0,1-.31,2.77c-.22,1.71-.48,4.07-.62,6.68s-.1,5-.05,6.71a20.12,20.12,0,0,1,0,2.79,12.13,12.13,0,0,1-.4-2.77,51.26,51.26,0,0,1-.1-6.75,52.45,52.45,0,0,1,.78-6.71A12.45,12.45,0,0,1,307.5,402.19Z" style="fill:#263238"></path><path d="M315.17,401.82a19.73,19.73,0,0,1-.18,3c-.16,1.84-.36,4.38-.49,7.19s-.18,5.36-.2,7.21a18.47,18.47,0,0,1-.11,3,16.89,16.89,0,0,1-.26-3c-.07-1.85-.08-4.41.05-7.24s.39-5.37.64-7.2A14.6,14.6,0,0,1,315.17,401.82Z" style="fill:#263238"></path><path d="M322.59,402.91a19.44,19.44,0,0,1,.06,2.93c0,1.81,0,4.3.1,7.05s.31,5.23.46,7a20.55,20.55,0,0,1,.18,2.92,13.88,13.88,0,0,1-.55-2.88c-.25-1.79-.49-4.29-.61-7s-.06-5.27,0-7.08A14.09,14.09,0,0,1,322.59,402.91Z" style="fill:#263238"></path><path d="M330.18,402a15.9,15.9,0,0,1,.05,2.7c0,1.67,0,4,.08,6.51s.27,4.83.41,6.49a17.19,17.19,0,0,1,.16,2.7,12.13,12.13,0,0,1-.53-2.66,65.33,65.33,0,0,1-.56-6.51,64.33,64.33,0,0,1,.07-6.54A12.15,12.15,0,0,1,330.18,402Z" style="fill:#263238"></path><path d="M419.34,399.43l-.29,0-.85,0-3.29.17-12.07.51L363,401.69l-21.95.76c-3.37.11-6.58.28-9.58.14s-5.8-.25-8.35-.38c-5.09-.28-9.21-.41-12.07-.42-1.42,0-2.53,0-3.28,0h-.85a1,1,0,0,1-.3,0l.29,0,.86-.06c.75,0,1.85-.09,3.28-.12,2.86-.06,7,0,12.09.25,2.55.1,5.34.24,8.34.31s6.19-.06,9.56-.18l21.94-.8,39.86-1.34,12.08-.35,3.28-.06h.86A.94.94,0,0,1,419.34,399.43Z" style="fill:#263238"></path><path d="M419,404.38c0,.14-19.77,2.2-44.18,4.6s-44.22,4.24-44.24,4.09,19.77-2.2,44.19-4.6S419,404.23,419,404.38Z" style="fill:#263238"></path><path d="M420.21,408.3c0,.14-19.88,2.32-44.43,4.85s-44.48,4.48-44.49,4.34,19.88-2.32,44.44-4.85S420.2,408.16,420.21,408.3Z" style="fill:#263238"></path><path d="M179.5,379.56l.38,30.15s-30.52,10.51-31,16.08l58.47,1.37,1.34-47Z" style="fill:#263238"></path><path d="M198,407.6a2.38,2.38,0,0,1,1.59,2.76,2.3,2.3,0,0,1-2.72,1.6,2.53,2.53,0,0,1-1.67-2.94,2.39,2.39,0,0,1,3-1.35" style="fill:#e0e0e0"></path><path d="M207.36,427.16l-.05-4.74-56,.46s-2.63,1.07-2.38,2.91Z" style="fill:#455a64"></path><path d="M178.93,409.39c0,.28,1.43.45,2.82,1.4s2.1,2.17,2.36,2.06-.12-1.77-1.81-2.89S178.88,409.12,178.93,409.39Z" style="fill:#fff"></path><path d="M172.74,411.78c-.07.28,1.16.79,2.1,2s1.19,2.52,1.47,2.51.51-1.62-.69-3.12S172.75,411.51,172.74,411.78Z" style="fill:#fff"></path><path d="M169.09,419c.26.07.69-1.35,0-2.93s-2-2.23-2.14-2,.68,1.09,1.23,2.4S168.8,419,169.09,419Z" style="fill:#fff"></path><path d="M179.61,402.51c.11.26,1.43-.1,3,.05s2.86.68,3,.44-1-1.29-2.94-1.44S179.48,402.28,179.61,402.51Z" style="fill:#fff"></path><path d="M300.43,269.84s-90.89,9.05-98.72,11.42-15,16.64-18.34,23.57-8.61,100-8.61,100L208,406.76s5.65-57.43,7-66.84.25-21.21.25-21.21,91.32,10.31,100,9.47S334.1,317.62,337,307.92c3.69-12.48-5.09-35-5.09-35s-7-3.44-12.61-3.78A110.87,110.87,0,0,0,300.43,269.84Z" style="fill:#263238"></path><path d="M298.46,297.74l-.26,0-.76.07-2.91.21c-2.54.17-6.21.39-10.75.63-9.08.47-21.62,1-35.49,1.23s-26.43.23-35.52.09c-4.54-.07-8.22-.15-10.76-.23l-2.92-.1-.76,0-.26,0a.76.76,0,0,1,.26,0H202l10.76.06c9.08,0,21.64,0,35.5-.24s26.41-.7,35.48-1.08l10.75-.46,2.93-.12h1Z" style="fill:#455a64"></path><path d="M188.26,257.75s-14.69,25.24-15,32.91c0,0-4.8.68-2,7.54,0,0-7.47,3.37-2.26,8.95,0,0-2.68,3.33,2.06,7.94v92a5.59,5.59,0,0,0,5.52,5.59h0a5.59,5.59,0,0,0,5.65-5.24c1.36-21.71,6.6-103.07,9.19-111.25,3-9.46,1.57-30.2.43-34.77C191.82,261.39,190.86,255.91,188.26,257.75Z" style="fill:#e0e0e0"></path><path d="M188.26,257.75l.31-.19a1.4,1.4,0,0,1,1.1-.15,2.56,2.56,0,0,1,1.34,1.36,10,10,0,0,1,.87,2.61h0a62.74,62.74,0,0,1,1.09,8.79c.24,3.61.43,7.89.29,12.74a76.62,76.62,0,0,1-.57,7.7,38.68,38.68,0,0,1-.74,4.11c-.39,1.39-.7,2.79-1,4.25-.9,5.87-1.49,12.31-2.12,19.2-1.24,13.78-2.38,29.38-3.57,46.26-.57,8.44-1.16,17.2-1.77,26.21q-.43,6.75-.88,13.7c-.08,1.16-.12,2.3-.24,3.49a5.76,5.76,0,0,1-1.55,3.26,5.85,5.85,0,0,1-9.38-1.24,6,6,0,0,1-.61-1.69,8.79,8.79,0,0,1-.1-1.76V386.15c0-8.82,0-17.41,0-25.68,0-16.54,0-31.84,0-45.38l.06.15a9.93,9.93,0,0,1-2.57-3.83,4.94,4.94,0,0,1,.5-4.38v.26c-.31-.4-.65-.77-.92-1.18a6.26,6.26,0,0,1-.68-1.34,4.11,4.11,0,0,1,0-2.91,6.24,6.24,0,0,1,1.67-2.3,10.13,10.13,0,0,1,2.29-1.52l-.09.23a9,9,0,0,1-.8-4.67,3.64,3.64,0,0,1,3-3.1l-.14.15a20.11,20.11,0,0,1,.92-4.12c.22-.64.44-1.28.65-1.91s.49-1.22.72-1.81c1-2.38,2-4.57,2.95-6.59,1.95-4,3.75-7.42,5.23-10.15s2.66-4.81,3.47-6.21l.92-1.58c.21-.35.33-.53.33-.53s-.09.19-.29.55l-.88,1.6c-.78,1.42-1.94,3.51-3.4,6.25s-3.22,6.14-5.15,10.18c-1,2-1.95,4.21-2.91,6.58-.23.6-.47,1.2-.71,1.82l-.64,1.89a19.2,19.2,0,0,0-.88,4.05l0,.13-.12,0a3.34,3.34,0,0,0-2.67,2.84,8.73,8.73,0,0,0,.8,4.47l.06.15-.15.08a7.53,7.53,0,0,0-3.75,3.63,3.6,3.6,0,0,0,0,2.66,5.8,5.8,0,0,0,.63,1.24c.26.4.59.75.89,1.13l.1.13-.09.13a4.58,4.58,0,0,0-.43,4,9.5,9.5,0,0,0,2.48,3.66l.07.06v.09c0,13.54,0,28.84,0,45.38,0,8.27,0,16.86,0,25.68q0,6.63,0,13.42v6.83a9,9,0,0,0,.09,1.66,5.89,5.89,0,0,0,.55,1.54,5.33,5.33,0,0,0,8.55,1.13,5.25,5.25,0,0,0,1.42-3c.11-1.13.16-2.32.24-3.46q.44-6.94.88-13.71c.62-9,1.21-17.77,1.79-26.21,1.21-16.87,2.38-32.47,3.65-46.26.65-6.89,1.26-13.33,2.18-19.22.27-1.47.6-2.92,1-4.27a35.32,35.32,0,0,0,.75-4.07,76.21,76.21,0,0,0,.6-7.67c.16-4.84,0-9.11-.21-12.72a65.81,65.81,0,0,0-1-8.77h0c-.4-2-1.12-3.58-2.1-3.92a1.34,1.34,0,0,0-1.06.11Z" style="fill:#263238"></path><polygon points="185.55 348.25 213.78 351.99 212.82 360.26 185.13 358.36 185.55 348.25" style="fill:#e0e0e0"></polygon><polygon points="210.34 383.42 182.19 383.92 182.09 395.06 209.51 391.68 210.34 383.42" style="fill:#e0e0e0"></polygon><polygon points="215.21 318.88 190.01 292.81 182.32 309.43 182.86 313.43 215.59 326.85 215.21 318.88" style="fill:#e0e0e0"></polygon><path d="M191.52,293.92a20.19,20.19,0,0,1-2.72-.62c-1.67-.41-4-.92-6.57-1.35s-4.95-.65-6.66-.79a18.22,18.22,0,0,1-2.78-.28,13.27,13.27,0,0,1,2.8-.09,53.26,53.26,0,0,1,6.72.65A50.35,50.35,0,0,1,188.9,293,11.66,11.66,0,0,1,191.52,293.92Z" style="fill:#263238"></path><path d="M191.05,301.58a19.86,19.86,0,0,1-3-.51c-1.81-.36-4.32-.83-7.1-1.28s-5.31-.76-7.14-1a20.24,20.24,0,0,1-3-.43,15.08,15.08,0,0,1,3,.07c1.84.13,4.39.4,7.18.84s5.3,1,7.1,1.43A14.68,14.68,0,0,1,191.05,301.58Z" style="fill:#263238"></path><path d="M189.14,308.84a19.8,19.8,0,0,1-2.92-.27c-1.79-.21-4.27-.47-7-.67s-5.24-.28-7-.32a21.56,21.56,0,0,1-2.93-.14,14.09,14.09,0,0,1,2.93-.23c1.81,0,4.32,0,7.08.17s5.24.52,7,.82A14.44,14.44,0,0,1,189.14,308.84Z" style="fill:#263238"></path><path d="M189.19,316.48a17.39,17.39,0,0,1-2.7-.26c-1.65-.19-3.94-.45-6.47-.63s-4.83-.26-6.5-.31a15.31,15.31,0,0,1-2.7-.14,13.28,13.28,0,0,1,2.7-.22,66.62,66.62,0,0,1,13,.94A11.72,11.72,0,0,1,189.19,316.48Z" style="fill:#263238"></path><path d="M182,405.38a1.07,1.07,0,0,1,0-.29c0-.22,0-.5,0-.86,0-.78.12-1.88.2-3.28.2-2.88.48-7,.82-12.06.74-10.21,1.77-24.25,2.9-39.77.59-7.77,1.15-15.16,1.66-21.89.26-3.36.44-6.57.92-9.55s.89-5.73,1.3-8.25c.83-5,1.42-9.11,1.73-11.95.17-1.41.28-2.52.34-3.26l.09-.85a.9.9,0,0,1,.05-.29,2.13,2.13,0,0,1,0,.29l0,.85c0,.75-.11,1.86-.24,3.28-.26,2.85-.79,6.95-1.58,12-.38,2.52-.82,5.28-1.23,8.25s-.62,6.16-.87,9.53c-.5,6.73-1.05,14.13-1.62,21.9-1.19,15.5-2.27,29.54-3.05,39.75-.42,5.06-.75,9.17-1,12.05-.12,1.39-.22,2.49-.29,3.27,0,.35-.07.63-.09.85A1,1,0,0,1,182,405.38Z" style="fill:#263238"></path><path d="M177.08,404.49c-.14,0,0-19.89.28-44.42s.66-44.42.81-44.42,0,19.89-.29,44.43S177.23,404.49,177.08,404.49Z" style="fill:#263238"></path><path d="M173.05,405.27c-.15,0-.12-20,.06-44.7s.44-44.69.59-44.69.11,20-.07,44.7S173.19,405.27,173.05,405.27Z" style="fill:#263238"></path><path d="M337.54,305.11s0,.28-.12.82a20,20,0,0,1-.53,2.33,32.5,32.5,0,0,1-3.56,8,26.39,26.39,0,0,1-3.75,4.8,21.08,21.08,0,0,1-5.77,3.94,36.54,36.54,0,0,1-15.57,3.22,144.51,144.51,0,0,1-15.91-1.14l-12.93-1.38-8.71-1-2.37-.29a5.54,5.54,0,0,1-.82-.14,4.34,4.34,0,0,1,.83,0l2.38.2,8.73.8,12.94,1.27a149.82,149.82,0,0,0,15.85,1.1,36.6,36.6,0,0,0,15.37-3.13,21.17,21.17,0,0,0,5.68-3.82,27.25,27.25,0,0,0,3.74-4.69,33.64,33.64,0,0,0,3.67-7.89c.31-1,.51-1.76.63-2.29A3.72,3.72,0,0,1,337.54,305.11Z" style="fill:#455a64"></path><path d="M315.38,155.66c-2.93,11.72-7.64,30.15-9.06,35.71a6.55,6.55,0,0,0,.4,4.53,7.2,7.2,0,0,0,5.25,4,6.69,6.69,0,0,0,6-1.9c1-1,1.89-2.16,1.9-3.07,0-1.56,6.15-25.76,8.73-35.89a6.84,6.84,0,0,0-2.51-7.15h0A6.85,6.85,0,0,0,315.38,155.66Z" style="fill:#455a64"></path><path d="M318.69,195.33c-.05,0,0-.21,0-.56a2.37,2.37,0,0,0-.57-1.32c-.78-1-2.64-1.4-4.54-1.85a9.18,9.18,0,0,0-4.94.16,16,16,0,0,0-1.86.94,3.42,3.42,0,0,1,1.73-1.28,8.51,8.51,0,0,1,5.17-.33,20.48,20.48,0,0,1,2.75.78,4.19,4.19,0,0,1,2,1.35,2.32,2.32,0,0,1,.48,1.55C318.85,195.16,318.71,195.34,318.69,195.33Z" style="fill:#263238"></path><path d="M333.19,181.63a13.37,13.37,0,0,0-1.43-4.47,12.3,12.3,0,0,0-1.54-5.68c-1.33-2.27-7.79-7.93-14.31-8.39a5.47,5.47,0,0,0-5.83,6s0,.09,0,.13-5.63.88-5.68,4.92l0,1.63s-3.7,4.8,1.68,6.08c0,0-1.25,6.68,3.78,7.1a68.91,68.91,0,0,0,9.48.12l1.28,2.31-.48,2.38s-1,4.15-3.69,5.36c-3.71,1.7-5.32,1.09-6.69,3.23a7.39,7.39,0,0,0-.16,7.6l2.6,4.79c.58,3.85,1.91,5.38,1.91,5.38l15-6.7a1.22,1.22,0,0,0,.33-2L326.81,209s1.62-.68,3-3.93l.92-2.24a26.56,26.56,0,0,0,2.9-6.71C334.13,193.24,333.7,184.61,333.19,181.63Z" style="fill:#e0e0e0"></path><path d="M329.35,189.67a16.4,16.4,0,0,0-2-3.5,14.56,14.56,0,0,0-8.08-5,24,24,0,0,0-9.65,0c-2.45.47-3.95.92-4,.84a4.57,4.57,0,0,1,1-.41c.67-.22,1.65-.51,2.88-.79a22.53,22.53,0,0,1,9.84-.18,14.24,14.24,0,0,1,8.26,5.24,9.91,9.91,0,0,1,1.41,2.65A3.25,3.25,0,0,1,329.35,189.67Z" style="fill:#263238"></path><path d="M330.25,179.55a33.53,33.53,0,0,0-3.11-2.37,20.2,20.2,0,0,0-8.9-2.76,35.65,35.65,0,0,0-9.39.7c-2.39.46-3.85.83-3.87.75a4.23,4.23,0,0,1,1-.37c.65-.2,1.6-.47,2.79-.74a31.45,31.45,0,0,1,9.51-.86,19.12,19.12,0,0,1,9.06,3,13.06,13.06,0,0,1,2.24,1.86A3.54,3.54,0,0,1,330.25,179.55Z" style="fill:#263238"></path><path d="M327.83,172.14c0,.07-1-.48-2.52-1.17a25.53,25.53,0,0,0-13-2.11c-1.7.16-2.74.4-2.76.31s.24-.13.71-.26a15.05,15.05,0,0,1,2-.42,22.43,22.43,0,0,1,13.22,2.14,15.48,15.48,0,0,1,1.77,1C327.64,171.94,327.85,172.11,327.83,172.14Z" style="fill:#263238"></path><path d="M314.9,212.63c0-.14,2.65-.84,5.89-1.85s5.84-1.95,5.9-1.81a38.24,38.24,0,0,1-11.79,3.66Z" style="fill:#263238"></path><path d="M313.37,138.14c5.63,3.17,17.91,10.3,17.91,10.3,1.23-.57,23.81-78.31,28.05-92.94a4.89,4.89,0,0,0-.84-4.38c-3-3.81-9.5-11.61-12.94-10.84-4,.91-28.73,77.19-33.93,93.38A3.81,3.81,0,0,0,313.37,138.14Z" style="fill:#FF725E"></path><path d="M333.19,142.94c-.06.06-1.09-.72-2.85-1.84a42.83,42.83,0,0,0-7.22-3.72,40.43,40.43,0,0,0-7.83-2.17c-2.05-.36-3.34-.47-3.34-.55a2.77,2.77,0,0,1,.92,0,22.81,22.81,0,0,1,2.48.22,33.7,33.7,0,0,1,8,2.05,35,35,0,0,1,7.23,3.89c.86.61,1.54,1.13,2,1.51S333.21,142.91,333.19,142.94Z" style="fill:#263238"></path><path d="M348.08,41.38a2.51,2.51,0,0,1-.08.24c-.07.19-.15.42-.26.71q-.37,1-1.05,2.7L342.82,55c-3.25,8.39-7.59,20-12,33s-8.14,24.85-10.72,33.46c-1.26,4.29-2.29,7.77-3,10.22-.35,1.17-.63,2.1-.83,2.78l-.22.72a1.13,1.13,0,0,1-.1.24,1,1,0,0,1,0-.26c0-.19.1-.43.17-.73.18-.68.42-1.62.73-2.81.64-2.43,1.62-5.94,2.86-10.26,2.49-8.65,6.13-20.54,10.57-33.53s8.85-24.62,12.19-33c1.66-4.18,3-7.55,4-9.86l1.15-2.67.3-.69C348,41.45,348.07,41.37,348.08,41.38Z" style="fill:#263238"></path><path d="M288.15,174.16l5.64-4.59a56.55,56.55,0,0,1,2.71-9,14.16,14.16,0,0,1,6.5-10.76,10.39,10.39,0,0,1,6.39-5.62,8.37,8.37,0,0,1,7.67-5.26c9.91-.43,17.8,6,19.07,9s-1.74,5.19-1.74,5.19l.64,3.65a5.85,5.85,0,0,1-.92,4.28h0s.68,4.92-2.48,5.07S328,164,328,164s-2.72,1.27-4,.88l-3.16-1-5.39-.44-4.06,2.81s-2,9.28-3.75,12.06-11.49,10.41-11.49,10.41Z" style="fill:#e0e0e0"></path><path d="M301.72,155.26a5.38,5.38,0,0,1,1.18-.39,28,28,0,0,1,3.33-.65,31.81,31.81,0,0,1,11.15.58,31.48,31.48,0,0,1,5.84,2,13.85,13.85,0,0,1,4.3,2.66,3.52,3.52,0,0,1,.9,1.78,2.84,2.84,0,0,1-.13,1.49,1.92,1.92,0,0,1-.52.79c-.16.14-.27.18-.27.17a2.75,2.75,0,0,0-.25-4,14.15,14.15,0,0,0-4.22-2.47,33.65,33.65,0,0,0-5.77-1.91,34.54,34.54,0,0,0-11-.72C303.45,154.88,301.74,155.35,301.72,155.26Z" style="fill:#263238"></path><path d="M310.52,148.47a4.37,4.37,0,0,1,1.13-.29,18,18,0,0,1,3.16-.27,20.5,20.5,0,0,1,17.59,9.84,17.16,17.16,0,0,1,1.42,2.84,4.43,4.43,0,0,1,.35,1.11c-.09,0-.63-1.54-2.08-3.75a21.27,21.27,0,0,0-17.29-9.67C312.16,148.2,310.53,148.57,310.52,148.47Z" style="fill:#263238"></path><path d="M314.21,143.77a2.9,2.9,0,0,1,.91-.15,6.78,6.78,0,0,1,1.07-.05,10.43,10.43,0,0,1,1.43.06,21.21,21.21,0,0,1,3.65.63,29.93,29.93,0,0,1,4.29,1.51,28.45,28.45,0,0,1,4,2.21,21.3,21.3,0,0,1,2.87,2.35,9.94,9.94,0,0,1,1,1,6.47,6.47,0,0,1,.65.86,2.89,2.89,0,0,1,.46.79c-.08.06-.79-1-2.33-2.43a24,24,0,0,0-2.89-2.22,29.44,29.44,0,0,0-8.11-3.66,25.19,25.19,0,0,0-3.57-.73C315.52,143.73,314.22,143.87,314.21,143.77Z" style="fill:#263238"></path><path d="M313.72,163.3c0,.15-2.2.38-4.8,1.2s-4.73,1.5-4.78,1.34a22.36,22.36,0,0,1,4.63-1.84A11.88,11.88,0,0,1,313.72,163.3Z" style="fill:#263238"></path><path d="M309.86,188.94a2.49,2.49,0,0,1-.63-.06,3.88,3.88,0,0,1-1.67-.7c-1.37-1-2.08-3.5-1.65-6.37l.13.19-.85-.25c-.29-.12-.57-.26-.85-.41a2.92,2.92,0,0,1-1.26-1.57,3.65,3.65,0,0,1,.12-2.14,7.31,7.31,0,0,1,1-2l-.05.13c0-.75,0-1.48.08-2.32a4.42,4.42,0,0,1,1.14-2.23,8.94,8.94,0,0,1,4.64-2.37l-.2.27a5.67,5.67,0,0,1,.48-3,5.88,5.88,0,0,1,2.07-2.39,5.68,5.68,0,0,1,3.12-.93,12.81,12.81,0,0,1,1.64.15c.53.12,1.09.19,1.61.36a24.19,24.19,0,0,1,9.28,5.32,16.87,16.87,0,0,1,1.76,1.83,8,8,0,0,1,1.24,2.14,12.48,12.48,0,0,1,.95,4.54l0-.12a19.16,19.16,0,0,1,1.78,7.7c.17,2.34.22,4.38.23,6.06a38.83,38.83,0,0,1-.14,3.9,8.25,8.25,0,0,1-.15,1,1.31,1.31,0,0,1-.08.34s0-.48.09-1.37.06-2.21,0-3.89-.14-3.71-.34-6a19.12,19.12,0,0,0-1.79-7.5l0-.06v-.06a12.25,12.25,0,0,0-.94-4.35,10.06,10.06,0,0,0-2.9-3.78,23.56,23.56,0,0,0-9.08-5.18c-.51-.17-1-.24-1.55-.36a12.21,12.21,0,0,0-1.56-.14,5.14,5.14,0,0,0-2.84.84,5.4,5.4,0,0,0-1.89,2.17,5.18,5.18,0,0,0-.45,2.69l0,.22-.22,0a8.65,8.65,0,0,0-4.39,2.2,4,4,0,0,0-1,2c-.1.72-.06,1.53-.09,2.26v.07l0,.06a4.83,4.83,0,0,0-1.12,3.76,2.52,2.52,0,0,0,1.08,1.38c.26.14.52.27.78.38l.81.26.15,0,0,.14c-.46,2.78.17,5.22,1.43,6.17a3.91,3.91,0,0,0,1.58.75Z" style="fill:#263238"></path><path d="M252.48,135.35a31.54,31.54,0,0,0-.35-10.34c-.12-.55-2.25-12-9.95-19.56C236.68,100,227.45,97.27,220,99s-16,6.31-19.21,14.86-1.83,12.7-1.83,12.7-.5,7.3,0,9.22c.9,3.24,5.93,10.25,5.93,10.25l2.85,2.74L248,141.86Z" style="fill:#FF725E"></path><path d="M250.3,141.2a93.27,93.27,0,0,0-.36-16.12,32.7,32.7,0,0,0-5.58-15c-.48-.66-4.22-4.93-5-4.64-.54.22,2.21,4.41,2.06,5-1.38,5.39-.53,11.16,1.42,16.38a72.79,72.79,0,0,0,7.44,14.37" style="fill:#263238"></path><path d="M201.84,132a24.15,24.15,0,0,1,15.56-28.79l1.19-.4c13-3.63,23.34,5.38,26.6,18.48L256.34,163l-2.84,23.17-24.62-9.85c-1.08-3.65-1.41-4.74-1.44-4.73s-12.91,2.29-17.26-9.9C208.08,155.83,204.74,143.34,201.84,132Z" style="fill:#ffbf9d"></path><path d="M227.44,171.63a31.34,31.34,0,0,0,14.34-10.19s-.68,10.53-13.29,13.62Z" style="fill:#ff9a6c"></path><path d="M208.5,141.9a1.84,1.84,0,0,0,2.29,1.19,1.77,1.77,0,0,0,1.26-2.2,1.85,1.85,0,0,0-2.29-1.19A1.77,1.77,0,0,0,208.5,141.9Z" style="fill:#263238"></path><path d="M206.31,136.53c.29.15,1.28-1.29,3.16-1.93s3.59-.17,3.72-.47c.06-.14-.3-.47-1.05-.7a5.07,5.07,0,0,0-3.07.09,4.91,4.91,0,0,0-2.43,1.82C206.22,136,206.16,136.46,206.31,136.53Z" style="fill:#263238"></path><path d="M225.49,136.85a1.85,1.85,0,0,0,2.29,1.18,1.76,1.76,0,0,0,1.26-2.19,1.84,1.84,0,0,0-2.29-1.19A1.77,1.77,0,0,0,225.49,136.85Z" style="fill:#263238"></path><path d="M224.6,131.09c.3.15,1.29-1.29,3.17-1.93s3.59-.17,3.71-.47c.07-.14-.29-.47-1-.7a5.07,5.07,0,0,0-3.07.09,4.88,4.88,0,0,0-2.42,1.82C224.51,130.54,224.46,131,224.6,131.09Z" style="fill:#263238"></path><path d="M223.12,147.42a13.39,13.39,0,0,0-3.25.49c-.5.12-1,.18-1.18-.12a2.63,2.63,0,0,1-.17-1.54c.06-1.32.11-2.7.17-4.14.19-5.89.15-10.67-.09-10.68s-.58,4.77-.77,10.66c0,1.45-.07,2.83-.1,4.15a3,3,0,0,0,.4,2,1.29,1.29,0,0,0,1,.43,3.36,3.36,0,0,0,.86-.17A13.14,13.14,0,0,0,223.12,147.42Z" style="fill:#263238"></path><path d="M223.36,126.9c.4.4,1.85-.63,3.83-1.32s3.76-.89,3.78-1.45c0-.26-.48-.58-1.32-.74a6.27,6.27,0,0,0-3.2.31,6.07,6.07,0,0,0-2.61,1.79C223.32,126.15,223.17,126.7,223.36,126.9Z" style="fill:#263238"></path><path d="M203.85,129.43c.53.3,1.93-.65,3.77-1.27s3.52-.83,3.73-1.4c.09-.27-.3-.62-1.12-.8a6.22,6.22,0,0,0-3.31.3,6.15,6.15,0,0,0-2.73,1.85C203.68,128.76,203.61,129.28,203.85,129.43Z" style="fill:#263238"></path><path d="M247.3,130.72c.18-.17,7.57-5.38,10.17,3.09S251,143.14,251,142.9,247.3,130.72,247.3,130.72Z" style="fill:#ffbf9d"></path><path d="M252.55,138.9s.18.06.46.1a1.58,1.58,0,0,0,1.11-.32c.8-.6,1.11-2.26.68-3.79a5,5,0,0,0-1.06-2,1.78,1.78,0,0,0-1.46-.79.77.77,0,0,0-.74.67c0,.27.06.43,0,.45s-.22-.08-.26-.45a1,1,0,0,1,.17-.64,1.16,1.16,0,0,1,.75-.46,2.14,2.14,0,0,1,1.94.84,5.21,5.21,0,0,1,1.24,2.2c.47,1.72.09,3.59-1,4.32a1.65,1.65,0,0,1-1.42.19C252.63,139.1,252.53,138.93,252.55,138.9Z" style="fill:#ff9a6c"></path><path d="M203.15,116.31c-1.6-.35,1.19-6,4.11-8.57,4.42-3.83,11.79-7.58,16.89-7.65,6.14-.08,11.69,1.34,16.07,5.64a34.87,34.87,0,0,1,8.83,15.94,10.69,10.69,0,0,1,.35,5.54c-.63,2.23-2.55,4.09-1.68,6.65a3.73,3.73,0,0,1-.11,2.86c-1.06,2.11-3.42,1.12-4.76-.17-2.86-2.77-4.25-6.68-5.55-10.44a26,26,0,0,1-1.87-8.23c0-1.54.26-3.08.17-4.62a5.31,5.31,0,0,0-1.86-4.05,5.7,5.7,0,0,0-.9-.5,9.22,9.22,0,0,0-9.28,1c-4.28,3.11-11.69,8.07-14.31,7.09-3.76-1.42-4.95-2.73-4.95-2.73Z" style="fill:#263238"></path><path d="M229.45,146.82c-.29.06.27,2-1,3.89s-3.41,2.27-3.34,2.55c0,.13.57.24,1.46,0a5.06,5.06,0,0,0,2.82-2,4.4,4.4,0,0,0,.71-3.23C229.94,147.19,229.58,146.77,229.45,146.82Z" style="fill:#263238"></path><path d="M247.61,136.72s1.06,20.22-8.89,27.4l-1.3-.41s9.13-9,8.55-26.47Z" style="fill:#263238"></path><path d="M214,167.87s9.11-8.18,25.44-4.51c0,0-3.27,6.38-12.47,8.33C219.92,173.19,214,168,214,167.87Z" style="fill:#263238"></path><path d="M220.31,172.8a28.21,28.21,0,0,1-9.63-1.63l-.53-.18c-2.78-.89-11.15-16.56-11.58-18.63-.49-2.36,1.78-12.64,2-13.8l1,.22c-.7,3.1-2.42,11.56-2,13.38.51,2.49,8.87,17.23,10.9,17.88l.54.18c2.58.85,7.38,2.44,15.94,1,9-1.54,17.72-9.85,19.31-12.91,1.24-2.38,3.92-20.25,5.16-29.36l1,.14c-.15,1.08-3.63,26.55-5.26,29.68-1.71,3.28-10.59,11.81-20,13.44A40.45,40.45,0,0,1,220.31,172.8Z" style="fill:#e0e0e0"></path><path d="M199.44,152.58l-.77-.64c.28-.33,7-8.2,26.14-9.81s24.1,4.71,24.3,5l-.81.59c-.05-.06-4.83-6.14-23.41-4.58S199.51,152.5,199.44,152.58Z" style="fill:#e0e0e0"></path><path d="M204.47,162.84,204,162a61.41,61.41,0,0,1,21.23-6.53c12.27-1.44,20.58,3.26,20.92,3.46l-.5.87a35.76,35.76,0,0,0-20.31-3.34A60.58,60.58,0,0,0,204.47,162.84Z" style="fill:#e0e0e0"></path><path d="M231.56,170c-.17-.49-4.18-12.17-4.51-13.26s-1-12.67-1-14l1-.06c.27,5.11.74,13,1,13.74.33,1.08,4.46,13.12,4.5,13.24Z" style="fill:#e0e0e0"></path><path d="M222.61,172.43l-8-14.14c-1-1.71-3.59-12.48-3.7-12.94l1-.24c.75,3.09,2.86,11.37,3.6,12.69l8,14.14Z" style="fill:#e0e0e0"></path><path d="M214.65,172.11c-.25-.37-6.16-9.08-7.42-11.12-.47-.76-5.41-10.63-5.62-11.05l.89-.45c1.77,3.54,5.22,10.39,5.58,11,1.25,2,7.34,11,7.4,11.08Z" style="fill:#e0e0e0"></path><path d="M240.14,165.55l-1-.09a78.36,78.36,0,0,1,1.19-8.36c.61-2.39,1.49-12.69,1.5-12.8.15-1.77.5-5.93.55-6.19l1,.22-.49-.11.49.1c0,.27-.35,3.87-.53,6.07,0,.43-.9,10.49-1.53,13A82.35,82.35,0,0,0,240.14,165.55Z" style="fill:#e0e0e0"></path><path d="M220.37,97.57l9.12.54a2.58,2.58,0,0,1,.86.21c2,1,9.83,1.88,12.87,7,2.16,3.62,5.57,8.93,6.94,13.2a2.4,2.4,0,0,1-3,3,21.35,21.35,0,0,0-8.94-1.28c-11.73,1.1-27.76,3.65-34.71,5.17-1.65.35-3.31-.23-3.05-1.9.57-3.7,1.48-9.3,2-11.12.72-2.46,5.79-7.89,7-9.16a2.15,2.15,0,0,1,.59-.45l9.06-4.92A2.36,2.36,0,0,1,220.37,97.57Z" style="fill:#FF725E"></path><path d="M205.79,117.51c4.84-1.38,16.13-2.33,21.77-1.53a30.81,30.81,0,0,1,10.72,4l-38.17,6.58-7.67,1.78C195.46,123.52,201,118.89,205.79,117.51Z" style="fill:#FF725E"></path><path d="M198.89,121.17a9.63,9.63,0,0,1,1.39-.84c.91-.51,2.26-1.19,4-2a41.22,41.22,0,0,1,6.21-2.14,33.9,33.9,0,0,1,8-1,47.67,47.67,0,0,1,14.46,1.83,21.63,21.63,0,0,1,4.08,1.73,11,11,0,0,1,1,.63,1.84,1.84,0,0,1,.33.26,15.19,15.19,0,0,1-1.45-.71,26.6,26.6,0,0,0-4.1-1.56,51.35,51.35,0,0,0-14.34-1.66,34.73,34.73,0,0,0-7.89.91,44.53,44.53,0,0,0-6.18,2c-1.72.71-3.08,1.34-4,1.79A9.26,9.26,0,0,1,198.89,121.17Z" style="fill:#263238"></path><path d="M250.84,123.45l.51,5.53L247,130.89s.05,6.24-2.31,7.12-4.58-.94-4.58-.94l-.74-17.23s7.67-2.2,7.62-1.89S250.84,123.45,250.84,123.45Z" style="fill:#FF725E"></path><path d="M215.13,111.64a24,24,0,0,1,1-6.59,23.25,23.25,0,0,1,2.29-6.24c.14,0-.9,2.84-1.79,6.37S215.29,111.65,215.13,111.64Z" style="fill:#263238"></path><path d="M200.22,117a11,11,0,0,1,1.11-2.17c.75-1.3,1.84-3.07,3.12-5s2.49-3.6,3.4-4.8a11.46,11.46,0,0,1,1.57-1.86,12.12,12.12,0,0,1-1.27,2.08l-3.27,4.87c-1.21,1.82-2.3,3.47-3.23,4.89A12.3,12.3,0,0,1,200.22,117Z" style="fill:#263238"></path><path d="M238.39,109.41c-.14.06-1.41-2.73-3.6-5.77s-4.41-5.17-4.29-5.28a6.34,6.34,0,0,1,1.55,1.28,27,27,0,0,1,3.16,3.69,27.48,27.48,0,0,1,2.48,4.19A6.65,6.65,0,0,1,238.39,109.41Z" style="fill:#263238"></path><path d="M252.68,128.76c-.15.14-2-3.22-5.89-5.66s-7.7-2.66-7.65-2.86a7.81,7.81,0,0,1,2.44.24,16.15,16.15,0,0,1,9.83,6.19A7.61,7.61,0,0,1,252.68,128.76Z" style="fill:#263238"></path></g><g id="freepik--Lines--inject-118"><path d="M319.68,222.25l-.55.28-1.61.78-6.23,2.92a242.88,242.88,0,0,1-23.7,8.92,268.69,268.69,0,0,1-36.51,8.76l-2.63.46-2.67.38-5.44.76c-3.67.5-7.44.81-11.26,1.24-7.67.58-15.63,1.08-23.8,1a258.72,258.72,0,0,1-45.82-3.71,108.7,108.7,0,0,1-19.38-5.23,56.27,56.27,0,0,1-15.28-8.49,37.49,37.49,0,0,1-5.3-5.52,29.58,29.58,0,0,1-3.41-5.9,19.72,19.72,0,0,1-1.4-10.73,17.87,17.87,0,0,1,2.54-6.38l1.09-1.42.38-.48s-.11.18-.34.51l-1,1.45a18.3,18.3,0,0,0-2.42,6.36,19.61,19.61,0,0,0,1.46,10.57,29.35,29.35,0,0,0,3.42,5.82,36.76,36.76,0,0,0,5.27,5.43,55.76,55.76,0,0,0,15.19,8.37,107.82,107.82,0,0,0,19.32,5.17,261.6,261.6,0,0,0,45.73,3.66c8.15,0,16.09-.46,23.75-1,3.82-.42,7.58-.73,11.25-1.22l5.43-.75,2.67-.38,2.62-.45a273.23,273.23,0,0,0,36.48-8.64c10.22-3.12,18.2-6.5,23.73-8.75l6.26-2.84,1.64-.73C319.48,222.32,319.68,222.25,319.68,222.25Z" style="fill:#263238"></path><path d="M175.65,253.28a2.94,2.94,0,0,1-.68,0l-1.94,0c-1.69,0-4.14-.16-7.15-.39a163,163,0,0,1-23.35-3.58c-4.5-1-8.75-2.21-12.56-3.41s-7.21-2.44-10-3.59c-1.41-.55-2.66-1.1-3.76-1.58s-2-.9-2.81-1.27l-1.75-.86a3.06,3.06,0,0,1-.59-.33,4.27,4.27,0,0,1,.64.24l1.79.76c.77.35,1.72.75,2.83,1.19s2.37,1,3.79,1.5c2.81,1.11,6.21,2.27,10,3.48s8,2.33,12.53,3.37a182.7,182.7,0,0,0,23.27,3.71c3,.28,5.44.47,7.13.56l1.94.13A5.16,5.16,0,0,1,175.65,253.28Z" style="fill:#263238"></path></g></svg>
