<svg xmlns="http://www.w3.org/2000/svg" viewBox="0 0 750 500"><g id="freepik--background-complete--inject-74"><rect x="95.28" y="415.87" width="15.95" height="28.76" style="fill:#e0e0e0"></rect><rect x="165.77" y="415.87" width="15.95" height="28.76" style="fill:#e0e0e0"></rect><rect x="60.22" y="243.45" width="132.13" height="172.42" style="fill:#e0e0e0"></rect><rect x="36.02" y="243.45" width="128.7" height="172.42" style="fill:#f5f5f5"></rect><rect x="47.39" y="415.87" width="15.95" height="28.76" style="fill:#f5f5f5"></rect><rect x="139.12" y="415.87" width="15.95" height="28.76" style="fill:#f5f5f5"></rect><path d="M154.48,396.18s0-.27,0-.76,0-1.25,0-2.21c0-1.94,0-4.78,0-8.45,0-7.33-.06-17.95-.1-31.14l.18.17L44,353.88h0l.26-.26c0,14.87,0,29.25,0,42.56l-.25-.25,79.13.11,23,.07,6.16,0h1.6l.56,0H154l-1.58,0-6.11,0-23,.07-79.3.12h-.25v-.25c0-13.31,0-27.69,0-42.56v-.27H44l110.45.09h.18v.18c0,13.23-.08,23.89-.1,31.25,0,3.65,0,6.48,0,8.41,0,.94,0,1.67,0,2.17S154.48,396.18,154.48,396.18Z" style="fill:#e0e0e0"></path><path d="M102.59,374.9a6,6,0,0,1-.21-.79,3.33,3.33,0,0,0-1.22-1.72,3.18,3.18,0,0,0-3-.4,3.1,3.1,0,0,0,0,5.81,3.18,3.18,0,0,0,3-.4,3.35,3.35,0,0,0,1.22-1.71c.15-.5.16-.8.21-.79a1.59,1.59,0,0,1,0,.84,3.33,3.33,0,0,1-1.2,1.95,3.48,3.48,0,0,1-3.35.56,3.55,3.55,0,0,1,0-6.71,3.48,3.48,0,0,1,3.35.56,3.32,3.32,0,0,1,1.2,2A1.62,1.62,0,0,1,102.59,374.9Z" style="fill:#e0e0e0"></path><path d="M154.48,345.21s0-.27,0-.77,0-1.24,0-2.2c0-1.94,0-4.78,0-8.45,0-7.34-.06-18-.1-31.15l.18.18L44,302.91h0l.26-.27c0,14.88,0,29.26,0,42.57L44,345l79.13.11,23,.07,6.16,0h1.6l.56,0H154l-1.58,0-6.11,0-23,.07-79.3.12h-.25v-.25c0-13.31,0-27.69,0-42.57v-.26H44l110.45.08h.18v.17c0,13.24-.08,23.9-.1,31.26,0,3.65,0,6.48,0,8.41,0,.94,0,1.67,0,2.17S154.48,345.21,154.48,345.21Z" style="fill:#e0e0e0"></path><path d="M102.59,323.93a6,6,0,0,1-.21-.79,3.33,3.33,0,0,0-1.22-1.72,3.18,3.18,0,0,0-3-.4,3.1,3.1,0,0,0,0,5.81,3.18,3.18,0,0,0,3-.4,3.35,3.35,0,0,0,1.22-1.71c.15-.5.16-.8.21-.79a1.56,1.56,0,0,1,0,.83,3.32,3.32,0,0,1-1.2,2,3.48,3.48,0,0,1-3.35.56,3.55,3.55,0,0,1,0-6.71,3.48,3.48,0,0,1,3.35.56,3.32,3.32,0,0,1,1.2,2A1.62,1.62,0,0,1,102.59,323.93Z" style="fill:#e0e0e0"></path><path d="M154.48,294.92s0-.26,0-.76,0-1.24,0-2.2c0-1.94,0-4.79,0-8.45,0-7.34-.06-17.95-.1-31.15l.18.18L44,252.62h0l.26-.26c0,14.88,0,29.26,0,42.56l-.25-.25,79.13.12,23,.07,6.16,0,1.6,0h.56l-.52,0h-1.58l-6.11,0-23,.07-79.3.11h-.25v-.25c0-13.3,0-27.68,0-42.56v-.26H44l110.45.08h.18v.18c0,13.24-.08,23.89-.1,31.26,0,3.64,0,6.47,0,8.41,0,.94,0,1.66,0,2.17S154.48,294.92,154.48,294.92Z" style="fill:#e0e0e0"></path><path d="M102.59,273.64a5.49,5.49,0,0,1-.21-.79,3.35,3.35,0,0,0-1.22-1.71,3.11,3.11,0,1,0,0,5,3.33,3.33,0,0,0,1.22-1.72,6,6,0,0,1,.21-.79,1.62,1.62,0,0,1,0,.84,3.32,3.32,0,0,1-1.2,2A3.51,3.51,0,0,1,98,277a3.56,3.56,0,0,1,0-6.72,3.54,3.54,0,0,1,3.35.56,3.35,3.35,0,0,1,1.2,2A1.62,1.62,0,0,1,102.59,273.64Z" style="fill:#e0e0e0"></path><path d="M449.27,451.52c-12.49,0-22.61,5.9-22.61,13.19s10.12,13.18,22.61,13.18,22.62-5.9,22.62-13.18S461.76,451.52,449.27,451.52Zm0,16.31c-4.13,0-7.48-1.82-7.48-4.06s3.35-4.06,7.48-4.06,7.49,1.82,7.49,4.06S453.41,467.83,449.27,467.83Z" style="fill:#e0e0e0"></path><rect x="40.28" y="40.94" width="143.24" height="189.84" transform="translate(7.12 -5.57) rotate(2.94)" style="fill:#fafafa"></rect><path d="M179,234.85l-.5,0L35,227.45l0-.5L44.78,36.87l.5,0,143.55,7.38,0,.5ZM36,226.5l142.06,7.31,9.69-188.59-142-7.3Z" style="fill:#e0e0e0"></path><path d="M129.61,114.75a4,4,0,0,1,2.27-3.15,10.74,10.74,0,0,1,3.93-.94,34.33,34.33,0,0,1,6.33-.17,6.46,6.46,0,0,1,3,.84c1.93,1.22,2.4,3.88,2,6.12a3.8,3.8,0,0,1-1.16,2.36,4.16,4.16,0,0,1-1.31.62,27.06,27.06,0,0,1-12.41,1c-1.24-.19-2.67-.64-3.07-1.83" style="fill:#e0e0e0"></path><path d="M91.42,113.51a4,4,0,0,0-2.27-3.15,10.74,10.74,0,0,0-3.93-.94,34.25,34.25,0,0,0-6.32-.17,6.58,6.58,0,0,0-3,.84c-1.92,1.22-2.4,3.88-2,6.12a3.71,3.71,0,0,0,1.15,2.36,3.91,3.91,0,0,0,1.32.62,27,27,0,0,0,12.4,1c1.24-.19,2.68-.64,3.07-1.83" style="fill:#e0e0e0"></path><path d="M110.66,115.39c-7.68.19-17.35-.87-20-1.61S76.83,109.69,71.38,115,60.48,155.65,60.85,163s9.66,12.39,15.24,9.17S89.35,153.8,91.2,153.55s7.19,2.23,10.66-.25a32.66,32.66,0,0,0,5.2-4.46s6.94-.25,7.56-.25,3,4.71,6.32,5.7,9.42-.87,10.28-1.24,6.69,11,12.64,16.73,17,2.23,17.59-6.82-9.91-41.87-13.5-46.58S131.47,113,126,114.64,115.49,115.26,110.66,115.39Z" style="fill:#ebebeb"></path><path d="M143.86,164c-6-5.7-11.77-17.1-12.64-16.73s-6.93,2.23-10.28,1.24-5.7-5.7-6.32-5.7-7.56.25-7.56.25a32.66,32.66,0,0,1-5.2,4.46c-3.47,2.48-8.8,0-10.66.25s-9.54,15.36-15.11,18.58c-5.23,3-13.74-1.27-15.07-7.85a37.71,37.71,0,0,0-.17,4.5c.37,7.31,9.66,12.39,15.24,9.17S89.35,153.8,91.2,153.55s7.19,2.23,10.66-.25a32.66,32.66,0,0,0,5.2-4.46s6.94-.25,7.56-.25,3,4.71,6.32,5.7,9.42-.87,10.28-1.24,6.69,11,12.64,16.73,17,2.23,17.59-6.82a21.89,21.89,0,0,0-.23-4.2C159.49,166.58,149.44,169.3,143.86,164Z" style="fill:#e0e0e0"></path><circle cx="85.03" cy="128.88" r="10.99" style="fill:#e0e0e0"></circle><circle cx="83.95" cy="127.88" r="10.99" transform="matrix(0.85, -0.53, 0.53, 0.85, -54.69, 63.24)" style="fill:#f5f5f5"></circle><path d="M149.09,129.45a11,11,0,1,1-11-11A11,11,0,0,1,149.09,129.45Z" style="fill:#e0e0e0"></path><circle cx="139.25" cy="127.88" r="10.99" transform="translate(-49.64 135.92) rotate(-45)" style="fill:#f5f5f5"></circle><circle cx="123.76" cy="144.45" r="7.4" transform="translate(-45.27 231.71) rotate(-76.72)" style="fill:#f5f5f5"></circle><circle cx="96.83" cy="144.45" r="7.4" transform="translate(-66.01 205.5) rotate(-76.72)" style="fill:#f5f5f5"></circle><path d="M89.69,124.83H87v-2.69a2.23,2.23,0,0,0-2.23-2.23H83.14a2.24,2.24,0,0,0-2.24,2.23v2.69H78.21A2.24,2.24,0,0,0,76,127.07v1.63a2.23,2.23,0,0,0,2.23,2.23H80.9v2.69a2.25,2.25,0,0,0,2.24,2.24h1.63A2.24,2.24,0,0,0,87,133.62v-2.69h2.69a2.24,2.24,0,0,0,2.24-2.23v-1.63A2.25,2.25,0,0,0,89.69,124.83Z" style="fill:#e0e0e0"></path><path d="M142.59,122.36a3.24,3.24,0,1,1-3.23-3.23A3.24,3.24,0,0,1,142.59,122.36Z" style="fill:#e0e0e0"></path><path d="M149.13,128.07a3.24,3.24,0,1,1-3.23-3.23A3.24,3.24,0,0,1,149.13,128.07Z" style="fill:#e0e0e0"></path><path d="M142.59,133.33a3.24,3.24,0,1,1-3.23-3.24A3.23,3.23,0,0,1,142.59,133.33Z" style="fill:#e0e0e0"></path><path d="M135.78,128.16a3.24,3.24,0,1,1-3.24-3.23A3.24,3.24,0,0,1,135.78,128.16Z" style="fill:#e0e0e0"></path><path d="M126,114.64c-5.45,1.62-10.53.62-15.36.75a110.84,110.84,0,0,1-13.34-.6,9.21,9.21,0,0,0,.13,1.39q.7,5,1.43,9.93a3,3,0,0,0,3.34,3.16,108.77,108.77,0,0,0,11.82.79,26.15,26.15,0,0,0,8.23-.89,2.43,2.43,0,0,0,1-.56,2.55,2.55,0,0,0,.49-.92,46,46,0,0,0,2.68-13.17Z" style="fill:#e0e0e0"></path><path d="M56,46.66a3,3,0,1,1-3-2.95A2.95,2.95,0,0,1,56,46.66Z" style="fill:#e0e0e0"></path><path d="M90.44,96.68h4.07a.87.87,0,0,1,.44.11.81.81,0,0,1,.43.76,1,1,0,0,1,0,.26c-.08.35-.17.69-.27,1a11.59,11.59,0,0,1-2.55,4.6,4.78,4.78,0,0,1-3.46,1.79,4,4,0,0,1-.49,0,4,4,0,0,1-2.77-2,9.09,9.09,0,0,1-1.21-4.89,13.16,13.16,0,0,1,.48-3.49,11.81,11.81,0,0,1,2.41-4.71,4.92,4.92,0,0,1,3.67-2,3.54,3.54,0,0,1,1.54.35,5,5,0,0,1,2.37,3,1,1,0,0,1,.1.41.89.89,0,0,1-.88.87,1.26,1.26,0,0,1-.27,0,.83.83,0,0,1-.56-.55l0-.08a4.32,4.32,0,0,0-.49-1A2.32,2.32,0,0,0,91,90a2.26,2.26,0,0,0-1.34.49,7.06,7.06,0,0,0-2.22,3.19,12,12,0,0,0-1,4.58,8.21,8.21,0,0,0,.7,3.61,2.35,2.35,0,0,0,2.12,1.59,2.92,2.92,0,0,0,2-1.18,10.85,10.85,0,0,0,2.09-3.78c-1.87,0-2.85,0-2.92,0-.63-.1-1-.43-1-1a.7.7,0,0,1,.09-.29A.91.91,0,0,1,90.44,96.68Z" style="fill:#e0e0e0"></path><path d="M104.28,88.74c0,.08.07.18.11.3.17.59,1.12,5.63,2.86,15.09a.6.6,0,0,1,0,.22.93.93,0,0,1-.11.45.81.81,0,0,1-.73.44h-.14a.8.8,0,0,1-.68-.6l-1-5h-5l-2.4,5a1.3,1.3,0,0,1-.08.17,1,1,0,0,1-.76.42.79.79,0,0,1-.47-.14.83.83,0,0,1-.4-.73.8.8,0,0,1,0-.26c.15-.35.4-.9.75-1.66Q101.6,91,102.63,88.92a.94.94,0,0,1,.85-.61A.91.91,0,0,1,104.28,88.74Zm-1.1,3.38-2.7,5.69h3.82Z" style="fill:#e0e0e0"></path><path d="M121.7,104.35a.08.08,0,0,1,0,0c-.08.57-.37.85-.87.85a.8.8,0,0,1-.46-.13,1,1,0,0,1-.43-.93q0-.18,1-9-2.61,5.48-4.09,8.64-.31.67-.36.75a1,1,0,0,1-.86.63.68.68,0,0,1-.21,0c-.3-.06-.54-.31-.69-.76l-1.9-9.27c-.44,3.33-.88,6.39-1.32,9.16,0,0,0,0,0,0-.08.57-.37.85-.87.85a.78.78,0,0,1-.46-.13,1,1,0,0,1-.43-.93q0-.11,1.55-11.79c.27-2,.41-3.09.44-3.25a.92.92,0,0,1,.13-.36.86.86,0,0,1,.79-.44l.25,0c.31.09.49.25.53.49.15.82.62,3.19,1.42,7.13q.86,4.28,1.09,5.52L121.89,89a1.71,1.71,0,0,1,.12-.23,1,1,0,0,1,.78-.4.83.83,0,0,1,.4.11.89.89,0,0,1,.48.74c0,.21-.06.46-.09.73Q122,102.75,121.7,104.35Z" style="fill:#e0e0e0"></path><path d="M128.69,88.31h7a1.29,1.29,0,0,1,.4,0,.8.8,0,0,1,.6.84.72.72,0,0,1-.07.33,1.07,1.07,0,0,1-.88.58h-6.29l-.79,6h4.53a1.3,1.3,0,0,1,.49.1.84.84,0,0,1,.54.82.8.8,0,0,1-.06.3,1,1,0,0,1-.89.59h-4.83l-.72,5.57H134a1.4,1.4,0,0,1,.47.08.83.83,0,0,1,.57.83,1.26,1.26,0,0,1,0,.27,1,1,0,0,1-.9.62h-7.27a.88.88,0,0,1-.5-.14,1,1,0,0,1-.43-.91q0-.15,2-15a.85.85,0,0,1,.09-.31A.8.8,0,0,1,128.69,88.31Z" style="fill:#e0e0e0"></path><path d="M86.75,179.93c-.11.59-.4.89-.89.9a.77.77,0,0,1-.46-.15,1,1,0,0,1-.42-.91l2-15a2.23,2.23,0,0,1,0-.36.78.78,0,0,1,.76-.5.73.73,0,0,1,.4.11.85.85,0,0,1,.47.74L88,170.59q5.39-6,5.66-6.26a1.1,1.1,0,0,1,.75-.39.84.84,0,0,1,.44.13.8.8,0,0,1,.42.73,1.25,1.25,0,0,1-.24.68q-.3.39-6.75,7.49l1.59,1.44c3.06,2.76,4.8,4.36,5.23,4.78a1.25,1.25,0,0,1,.41.76.8.8,0,0,1-.15.47.81.81,0,0,1-.7.41,1.17,1.17,0,0,1-.71-.24q-.37-.27-6.48-5.9C87.1,177.42,86.87,179.16,86.75,179.93Z" style="fill:#e0e0e0"></path><path d="M99.8,180c-.1.59-.4.89-.87.9a.86.86,0,0,1-.47-.14,1,1,0,0,1-.42-.92l2-15a1.77,1.77,0,0,1,0-.32.8.8,0,0,1,.79-.53.87.87,0,0,1,.42.1.83.83,0,0,1,.46.71Q99.91,179.42,99.8,180Z" style="fill:#e0e0e0"></path><path d="M114.6,180c-.08.56-.37.85-.87.86a1.13,1.13,0,0,1-.93-.65l-5.52-12.63c-.07.6-.16,1.27-.26,2-.72,6.06-1.16,9.52-1.3,10.37q-.16.88-.9.9a.8.8,0,0,1-.47-.15,1,1,0,0,1-.43-.91q2-15,2-15.05a1.12,1.12,0,0,1,.12-.35.88.88,0,0,1,.81-.45.92.92,0,0,1,.92.43l5.5,12.36,1.61-12a.86.86,0,0,1,.1-.38.75.75,0,0,1,.73-.48.85.85,0,0,1,.43.12.82.82,0,0,1,.42.75c0,.24-.07.51-.1.79Q114.85,178.52,114.6,180Z" style="fill:#e0e0e0"></path><path d="M124.56,172.26h4.07a1,1,0,0,1,.44.11.82.82,0,0,1,.43.76,1.06,1.06,0,0,1,0,.27c-.08.34-.17.68-.27,1a11.52,11.52,0,0,1-2.55,4.6,4.81,4.81,0,0,1-3.46,1.8,2.89,2.89,0,0,1-.5,0,3.94,3.94,0,0,1-2.76-2,9.09,9.09,0,0,1-1.21-4.89,13.28,13.28,0,0,1,.48-3.49,11.68,11.68,0,0,1,2.41-4.71,4.94,4.94,0,0,1,3.66-1.94,3.38,3.38,0,0,1,1.54.35,5,5,0,0,1,2.38,3,1,1,0,0,1,.09.41.88.88,0,0,1-.12.44.81.81,0,0,1-.75.43.87.87,0,0,1-.83-.59l0-.08a4.84,4.84,0,0,0-.5-1,2.32,2.32,0,0,0-1.94-1.16,2.29,2.29,0,0,0-1.35.49,7.19,7.19,0,0,0-2.21,3.19,11.87,11.87,0,0,0-1,4.59,8.31,8.31,0,0,0,.7,3.6,2.37,2.37,0,0,0,2.12,1.59,2.9,2.9,0,0,0,2-1.18,10.83,10.83,0,0,0,2.09-3.78c-1.87,0-2.85,0-2.92,0-.63-.1-1-.43-1-1a1,1,0,0,1,.08-.3A.92.92,0,0,1,124.56,172.26Z" style="fill:#e0e0e0"></path><path d="M70.75,80.15l1,1.74a11.59,11.59,0,0,0,4.63,4.63l1.74,1-1.74,1a11.59,11.59,0,0,0-4.63,4.63l-1,1.74-1-1.74a11.65,11.65,0,0,0-4.63-4.63l-1.74-1,1.74-1a11.65,11.65,0,0,0,4.63-4.63Z" style="fill:#ebebeb"></path><path d="M92.49,210l1,1.74a11.59,11.59,0,0,0,4.63,4.63l1.74,1-1.74,1a11.53,11.53,0,0,0-4.63,4.63l-1,1.74-.95-1.74a11.53,11.53,0,0,0-4.63-4.63l-1.74-1,1.74-1a11.59,11.59,0,0,0,4.63-4.63Z" style="fill:#ebebeb"></path><path d="M160.44,103l.29.53a3.67,3.67,0,0,0,1.41,1.41l.53.28-.53.29a3.67,3.67,0,0,0-1.41,1.41l-.29.53-.29-.53a3.58,3.58,0,0,0-1.4-1.41l-.53-.29.53-.28a3.58,3.58,0,0,0,1.4-1.41Z" style="fill:#e0e0e0"></path><path d="M58.77,209l.36.66a4.38,4.38,0,0,0,1.76,1.76l.66.36-.66.37a4.38,4.38,0,0,0-1.76,1.76l-.36.66-.36-.66a4.38,4.38,0,0,0-1.76-1.76l-.66-.37.66-.36a4.38,4.38,0,0,0,1.76-1.76Z" style="fill:#e0e0e0"></path><path d="M121.05,204l.36.66a4.51,4.51,0,0,0,1.76,1.76l.66.36-.66.36a4.51,4.51,0,0,0-1.76,1.76l-.36.66-.36-.66a4.51,4.51,0,0,0-1.76-1.76l-.66-.36.66-.36a4.51,4.51,0,0,0,1.76-1.76Z" style="fill:#e0e0e0"></path><path d="M116.36,61.59l.35.64a4.34,4.34,0,0,0,1.7,1.7l.64.35-.64.35a4.22,4.22,0,0,0-1.7,1.7l-.35.64-.35-.64a4.22,4.22,0,0,0-1.7-1.7l-.64-.35.64-.35a4.34,4.34,0,0,0,1.7-1.7Z" style="fill:#e0e0e0"></path><path d="M74,113a2.24,2.24,0,0,1-.09.53l-.34,1.5-1.28,5.48c-1.08,4.63-2.47,11-3.78,18.17S66.22,152.3,65.59,157c-.31,2.3-.56,4.19-.74,5.58l-.21,1.52a1.81,1.81,0,0,1-.11.53,1.74,1.74,0,0,1,0-.54c0-.41.06-.91.11-1.53.11-1.32.3-3.24.57-5.6.54-4.73,1.45-11.24,2.75-18.39S70.73,125,71.9,120.41c.58-2.31,1.08-4.17,1.45-5.44l.43-1.47A2.22,2.22,0,0,1,74,113Z" style="fill:#e0e0e0"></path><path d="M159,166.65a7,7,0,0,1-.56-1.23c-.32-.8-.78-2-1.32-3.41-1.08-2.9-2.51-6.93-4-11.41s-2.7-8.58-3.54-11.56c-.42-1.49-.74-2.7-.95-3.54a7.52,7.52,0,0,1-.28-1.31,5.94,5.94,0,0,1,.47,1.26c.3.92.67,2.09,1.12,3.48.92,2.95,2.21,7,3.67,11.51s2.84,8.52,3.84,11.44c.47,1.39.86,2.56,1.16,3.47A6.34,6.34,0,0,1,159,166.65Z" style="fill:#e0e0e0"></path><path d="M138.16,66.09s-.36.1-1,.37a8.53,8.53,0,0,0-4.93,5.76,7.83,7.83,0,0,0,1.13,6.06A8,8,0,0,0,136,80.83,8.5,8.5,0,0,0,139.72,82c2.78.23,5.71-.62,8.83-1.19a22,22,0,0,1,19.24,5.7,20.23,20.23,0,0,1,5.57,9.11,22.38,22.38,0,0,1,.61,9.94,20.31,20.31,0,0,1-1.25,4.5,19,19,0,0,1-2.06,3.9,21.06,21.06,0,0,1-5.57,5.54,21.9,21.9,0,0,1-10.65,3.78,16.67,16.67,0,0,1-4.16-.15,1.23,1.23,0,0,1,.28,0l.8,0a23,23,0,0,0,3.07-.08,22.16,22.16,0,0,0,10.45-3.88,20.68,20.68,0,0,0,5.42-5.49,18.37,18.37,0,0,0,2-3.81,19.75,19.75,0,0,0,1.19-4.41,22,22,0,0,0-.62-9.73,19.9,19.9,0,0,0-5.44-8.88,21.61,21.61,0,0,0-18.8-5.6c-3.08.55-6,1.4-8.94,1.15a8.94,8.94,0,0,1-3.95-1.23,8.66,8.66,0,0,1-2.69-2.7,8.16,8.16,0,0,1-1.11-6.32A8.39,8.39,0,0,1,134.48,68a8,8,0,0,1,2.64-1.62A4.43,4.43,0,0,1,138.16,66.09Z" style="fill:#e0e0e0"></path><path d="M137,67.6h0a7.94,7.94,0,0,1,3.44-10.68l7.06-3.62,7.24,14.12L147.67,71A7.94,7.94,0,0,1,137,67.6Z" style="fill:#ebebeb"></path><path d="M183.72,48a3,3,0,1,1-2.95-3A3,3,0,0,1,183.72,48Z" style="fill:#e0e0e0"></path><polygon points="717.15 77.26 717.15 163.81 592.85 163.81 588.37 77.86 717.15 77.26" style="fill:#e0e0e0"></polygon><rect x="607.64" y="58.59" width="85.76" height="124.31" transform="translate(529.77 771.27) rotate(-90)" style="fill:#fff"></rect><path d="M713.17,164.13H587.87V77.37h125.3Zm-124.3-1h123.3V78.37H588.87Z" style="fill:#e0e0e0"></path><rect x="601.83" y="88.52" width="97.38" height="64.45" style="fill:#fff"></rect><path d="M699.21,88.52h-.48l-1.38,0-5.34,0-20.07.06-70.11.12.24-.24c0,19.69,0,41.51,0,64.44h0l-.26-.26,97.38,0L699,153c0-19.62.09-35.71.11-46.9,0-5.6,0-10,0-13,0-1.48,0-2.62,0-3.4s0-1.18,0-1.18,0,.38,0,1.13,0,1.9,0,3.37c0,3,0,7.34,0,12.92,0,11.22.06,27.35.11,47v.21h-.21l-97.38,0h-.26V153h0c0-22.93,0-44.75,0-64.44v-.24h.24l70.27.12,20,.06,5.3,0,1.35,0Z" style="fill:#e0e0e0"></path><path d="M588.37,77.62A13.21,13.21,0,0,1,590.48,79c1.27.93,3,2.24,4.87,3.73s3.52,2.91,4.68,4a12,12,0,0,1,1.8,1.8,12.65,12.65,0,0,1-2-1.52c-1.37-1.09-3-2.39-4.77-3.83l-4.76-3.84A11.55,11.55,0,0,1,588.37,77.62Z" style="fill:#e0e0e0"></path><path d="M712.67,77.87a72.62,72.62,0,0,1-6.57,5.53,70.6,70.6,0,0,1-6.89,5.12A70.73,70.73,0,0,1,705.78,83,70,70,0,0,1,712.67,77.87Z" style="fill:#e0e0e0"></path><path d="M712.58,163.64l-13.86-11.23" style="fill:#fff"></path><path d="M698.72,152.41a75.51,75.51,0,0,1,7.09,5.41,76.53,76.53,0,0,1,6.77,5.82,74.56,74.56,0,0,1-7.1-5.42A76.39,76.39,0,0,1,698.72,152.41Z" style="fill:#e0e0e0"></path><path d="M588.37,163.63a67.38,67.38,0,0,1,6.5-5.48,67.75,67.75,0,0,1,6.82-5.06,70,70,0,0,1-6.5,5.47A70.9,70.9,0,0,1,588.37,163.63Z" style="fill:#e0e0e0"></path><path d="M657.34,101.53a19.9,19.9,0,0,0-11.88.48,15.25,15.25,0,0,0-3.62,1.84c-3.72,2.66-10.48,8-10.66,18.58s6.06,13.48,9,14.5,25.64-.24,25.64-.24,9.2-4.83,8.4-14.06C673.56,114.71,668.66,104.52,657.34,101.53Z" style="fill:#e0e0e0"></path><path d="M639.45,133.58s-.45,5.59,2,7.58,7.53,2.88,11.62,2.78,10.38-1,11.74-3.87,1.6-6.65,1.25-7.14-5.51-5.17-14-4.54S639.45,133.58,639.45,133.58Z" style="fill:#f5f5f5"></path><g style="opacity:0.4"><path d="M662.54,111.6a10.46,10.46,0,1,1-10.71-10.2A10.46,10.46,0,0,1,662.54,111.6Z" style="fill:#fff"></path></g><g style="opacity:0.4"><path d="M631.79,128a13.41,13.41,0,0,0,4.84-8,13,13,0,0,0-1.94-9s-3.24,5.32-3.44,10.07C631,126.1,631.79,128,631.79,128Z" style="fill:#fff"></path></g><g style="opacity:0.4"><path d="M673.92,127a13.49,13.49,0,0,1-5.23-7.75,11.85,11.85,0,0,1,1.28-8.69,28.87,28.87,0,0,1,4,9.44C674.85,125.07,673.92,127,673.92,127Z" style="fill:#fff"></path></g></g><g id="freepik--Floor--inject-74"><path d="M720.29,444.72c0,.14-154.6.26-345.27.26s-345.31-.12-345.31-.26,154.57-.26,345.31-.26S720.29,444.57,720.29,444.72Z" style="fill:#263238"></path></g><g id="freepik--TV--inject-74"><path d="M497.76,325.47H447.87a3.91,3.91,0,0,1-3.91-3.91h0a3.91,3.91,0,0,1,3.91-3.91h49.89a3.91,3.91,0,0,1,3.91,3.91h0A3.91,3.91,0,0,1,497.76,325.47Z" style="fill:#FF725E"></path><path d="M494.25,317.44H444.37a3.93,3.93,0,0,1-3.92-3.92h0a3.92,3.92,0,0,1,3.92-3.91h49.88a3.92,3.92,0,0,1,3.92,3.91h0A3.93,3.93,0,0,1,494.25,317.44Z" style="fill:#455a64"></path><path d="M492,313.63c0,.14-8.83.26-19.72.26s-19.72-.12-19.72-.26,8.83-.26,19.72-.26S492,313.49,492,313.63Z" style="fill:#263238"></path><rect x="250.67" y="325.47" width="311.65" height="119.16" style="fill:#263238"></rect><rect x="224.13" y="325.47" width="311.65" height="119.16" style="fill:#455a64"></rect><path d="M466.63,369.27s0-.22,0-.63,0-1,0-1.84c0-1.62,0-4,0-7.09,0-6.19,0-15.23-.08-26.66l.15.15-151.85.11h0l.26-.26c0,12.4,0,24.53,0,36.22l-.25-.26,108.31.12,31.94.07,8.61,0,2.23,0,.77,0h-.74l-2.2,0-8.55,0-31.88.07-108.49.11h-.26V332.79h.27l151.85.1h.16v.16c0,11.47-.07,20.54-.09,26.75,0,3.08,0,5.45,0,7.06,0,.79,0,1.39,0,1.81S466.63,369.27,466.63,369.27Z" style="fill:#263238"></path><rect x="355.71" y="344.42" width="101.57" height="24.85" style="fill:#263238"></rect><path d="M438,368.1c-.14,0-.26-5.23-.26-11.68s.12-11.69.26-11.69.26,5.23.26,11.69S438.15,368.1,438,368.1Z" style="fill:#455a64"></path><path d="M413.52,356.76c0,.14-12.89.26-28.8.26s-28.81-.12-28.81-.26,12.9-.26,28.81-.26S413.52,356.61,413.52,356.76Z" style="fill:#455a64"></path><path d="M426.78,350.85a1.14,1.14,0,1,0,.34-.19" style="fill:#fafafa"></path><path d="M426.78,356.05a1.16,1.16,0,1,0,.34-.18" style="fill:#FF725E"></path><path d="M421.09,360.67a7.32,7.32,0,0,0-2.08,2.14,9.5,9.5,0,0,0-1.28,3.39,14.28,14.28,0,0,0,.07,4.95c.29,1.85.88,3.86,1.38,6.11a57.23,57.23,0,0,1,1.17,7.37,39.47,39.47,0,0,1-.13,8.59,27.73,27.73,0,0,1-2.82,9.19,23.39,23.39,0,0,1-3,4.28,22.8,22.8,0,0,1-4.07,3.61,16.49,16.49,0,0,1-21.92-1.86,23.45,23.45,0,0,1-4-5.06,14.3,14.3,0,0,1-2.05-6.32,9.8,9.8,0,0,1,1.92-6.51,7.77,7.77,0,0,1,6.23-2.92,9.91,9.91,0,0,1,6.61,2.55,14.47,14.47,0,0,1,3.94,6.09,19.87,19.87,0,0,1,1,7.32,22.92,22.92,0,0,1-1.67,7.31,26.53,26.53,0,0,1-9.49,11.81,37.67,37.67,0,0,1-14.07,5.82,53.86,53.86,0,0,1-14.78.87A60.39,60.39,0,0,1,335.57,421a58.33,58.33,0,0,1-18.28-17.33,81,81,0,0,1-9.64-19.8,125,125,0,0,1-4.42-17.63c-1-5.27-1.54-9.85-2-13.59s-.74-6.65-.94-8.62l-.22-2.25c-.05-.5-.06-.76-.06-.76s.05.25.11.76.16,1.26.27,2.24l1,8.61c.49,3.73,1.11,8.3,2.08,13.55A127.88,127.88,0,0,0,308,383.72a80.6,80.6,0,0,0,9.65,19.66,57.92,57.92,0,0,0,18.17,17.17,60.06,60.06,0,0,0,26.28,8.34,53.22,53.22,0,0,0,14.64-.87,37,37,0,0,0,13.87-5.74,26,26,0,0,0,9.31-11.57,22.31,22.31,0,0,0,1.63-7.15,19.39,19.39,0,0,0-.95-7.12,13.82,13.82,0,0,0-3.79-5.88,9.45,9.45,0,0,0-6.27-2.43,7.27,7.27,0,0,0-5.86,2.73,9.28,9.28,0,0,0-1.82,6.18,13.86,13.86,0,0,0,2,6.11,23.22,23.22,0,0,0,3.93,5A16,16,0,0,0,410.14,410a22.25,22.25,0,0,0,4-3.52,23,23,0,0,0,2.92-4.2,27.36,27.36,0,0,0,2.82-9.07,39.47,39.47,0,0,0,.17-8.51,53.87,53.87,0,0,0-1.13-7.35c-.48-2.23-1.05-4.26-1.33-6.13a14.52,14.52,0,0,1,0-5,9.26,9.26,0,0,1,1.35-3.41,6.78,6.78,0,0,1,1.52-1.67A4.28,4.28,0,0,1,421.09,360.67Z" style="fill:#263238"></path><path d="M527,437.92s0-.19,0-.53,0-.85,0-1.5c0-1.34,0-3.29,0-5.82,0-5.07,0-12.45-.06-21.74,0-18.56-.07-44.75-.12-75.28l.24.24-50.66,0h0l.26-.26c0,40.56,0,77.49-.06,104.86l-.2-.19,37,.11,10.11,0,2.64,0c.6,0,.91,0,.91,0l-.87,0-2.61,0-10.06,0-37.13.11h-.19v-.2c0-27.37,0-64.3-.07-104.86v-.26h51.18v.25c0,30.6-.09,56.84-.12,75.45,0,9.26,0,16.62-.07,21.68,0,2.51,0,4.44,0,5.77,0,.64,0,1.13,0,1.47S527,437.92,527,437.92Z" style="fill:#263238"></path><path d="M520,386.71a3.06,3.06,0,1,1-3.05-3.06A3,3,0,0,1,520,386.71Z" style="fill:#263238"></path><path d="M545.56,441.41a2.55,2.55,0,0,1,.55.09l1.55.33a55.19,55.19,0,0,0,5.75.84,27.13,27.13,0,0,0,4,.11,10,10,0,0,0,4.33-1.14,6.69,6.69,0,0,0,3-3.79,26.09,26.09,0,0,0,1-5.33,17.61,17.61,0,0,1,1.31-5.38,15.74,15.74,0,0,1,2.82-4.32,15.42,15.42,0,0,1,7.41-4.49,9.07,9.07,0,0,1,3.34-.36,3,3,0,0,1,2.21,1.23,2.16,2.16,0,0,1,.4,1.56,1.17,1.17,0,0,1-.2.52s.07-.18.1-.53a2.16,2.16,0,0,0-.46-1.43,2.82,2.82,0,0,0-2.08-1.06,9.33,9.33,0,0,0-3.22.42,15.39,15.39,0,0,0-7.14,4.46,15.65,15.65,0,0,0-2.72,4.2,17.48,17.48,0,0,0-1.25,5.25,27.71,27.71,0,0,1-1,5.43,7.15,7.15,0,0,1-3.23,4,10.31,10.31,0,0,1-4.55,1.16,26.08,26.08,0,0,1-4-.18,42.65,42.65,0,0,1-5.76-1c-.67-.16-1.18-.31-1.53-.42A2,2,0,0,1,545.56,441.41Z" style="fill:#263238"></path><path d="M570.56,441.49a2,2,0,0,1,.51.07l1.43.32a43,43,0,0,0,5.3.92,15.12,15.12,0,0,0,7.74-1.06,10.12,10.12,0,0,0,3.68-2.73,9,9,0,0,0,1.87-4.51c.26-1.7.29-3.41.55-5.05a15.45,15.45,0,0,1,1.48-4.56,10.67,10.67,0,0,1,5.88-5.4,8.68,8.68,0,0,1,5.4-.18,6.81,6.81,0,0,1,1.36.6q.43.27.42.3a13.35,13.35,0,0,0-1.83-.7,8.71,8.71,0,0,0-5.22.33,10.41,10.41,0,0,0-5.58,5.27,14.86,14.86,0,0,0-1.4,4.42c-.26,1.6-.28,3.3-.55,5.05a9.47,9.47,0,0,1-2,4.76,10.66,10.66,0,0,1-3.88,2.84,15.25,15.25,0,0,1-8,1,34.76,34.76,0,0,1-5.32-1.08l-1.41-.41A3,3,0,0,1,570.56,441.49Z" style="fill:#263238"></path><path d="M583.49,433.18h0a6.86,6.86,0,0,1-6.86-6.86h0a6.86,6.86,0,0,1,6.86-6.86h0a6.86,6.86,0,0,1,6.85,6.86h0A6.86,6.86,0,0,1,583.49,433.18Z" style="fill:#263238"></path><path d="M607.14,433.18h0a6.86,6.86,0,0,1-6.85-6.86h0a6.86,6.86,0,0,1,6.85-6.86h0a6.86,6.86,0,0,1,6.86,6.86h0A6.86,6.86,0,0,1,607.14,433.18Z" style="fill:#263238"></path><rect x="574.87" y="425.78" width="84.81" height="18.86" style="fill:#e0e0e0"></rect><rect x="563.6" y="425.78" width="84.81" height="18.86" style="fill:#ebebeb"></rect><rect x="338.55" y="254.72" width="64.8" height="70.47" style="fill:#263238"></rect><rect x="218.88" y="86.27" width="337.64" height="217.44" style="fill:#263238"></rect><rect x="209.63" y="86.27" width="337.64" height="217.44" style="fill:#263238"></rect><path d="M547,86.27c.14,0,.26,48.47.26,108.23s-.12,108.25-.26,108.25-.27-48.46-.27-108.25S546.86,86.27,547,86.27Z" style="fill:#455a64"></path><rect x="218.15" y="95.46" width="299.09" height="199.46" style="fill:#fff"></rect><path d="M360.1,272.22h-9.41V240.28a4.71,4.71,0,0,1,4.71-4.71h0a4.7,4.7,0,0,1,4.7,4.71Z" style="fill:#FF725E"></path><path d="M360.1,272.22h-9.41V240.28a4.71,4.71,0,0,1,4.71-4.71h0a4.7,4.7,0,0,1,4.7,4.71Z" style="fill:#455a64"></path><path d="M360.1,239.77s-2.1.06-4.69.06-4.69,0-4.69-.06,2.1-.06,4.69-.06S360.1,239.73,360.1,239.77Z" style="fill:#263238"></path><path d="M360.1,247.92s-2.1.06-4.69.06-4.69,0-4.69-.06,2.1-.06,4.69-.06S360.1,247.89,360.1,247.92Z" style="fill:#263238"></path><path d="M357.49,247.92s-.06-1.82-.06-4.08,0-4.07.06-4.07.07,1.82.07,4.07S357.53,247.92,357.49,247.92Z" style="fill:#263238"></path><path d="M356.39,242.14a.33.33,0,1,1-.33-.33A.33.33,0,0,1,356.39,242.14Z" style="fill:#263238"></path><path d="M356.39,245a.33.33,0,1,1-.33-.33A.33.33,0,0,1,356.39,245Z" style="fill:#263238"></path><path d="M360.1,264.51s-2.1.06-4.69.06-4.69,0-4.69-.06,2.1-.06,4.69-.06S360.1,264.47,360.1,264.51Z" style="fill:#263238"></path><path d="M357.49,264.51s-.06-1.83-.06-4.08,0-4.08.06-4.08.07,1.83.07,4.08S357.53,264.51,357.49,264.51Z" style="fill:#263238"></path><path d="M356.39,258.73a.33.33,0,1,1-.33-.34A.33.33,0,0,1,356.39,258.73Z" style="fill:#263238"></path><path d="M356.39,261.55a.33.33,0,1,1-.33-.34A.33.33,0,0,1,356.39,261.55Z" style="fill:#263238"></path><path d="M350.72,256.29s2.1-.06,4.69-.06,4.69,0,4.69.06-2.1.06-4.69.06S350.72,256.32,350.72,256.29Z" style="fill:#263238"></path><path d="M353.33,256.29s-.06-1.83-.06-4.08,0-4.08.06-4.08.06,1.83.06,4.08S353.37,256.29,353.33,256.29Z" style="fill:#263238"></path><path d="M354.43,250.51a.34.34,0,0,0,.67,0,.34.34,0,0,0-.67,0Z" style="fill:#263238"></path><path d="M354.43,253.33a.34.34,0,1,0,.34-.34A.34.34,0,0,0,354.43,253.33Z" style="fill:#263238"></path><path d="M351.31,240.57s0-.07,0-.19,0-.29.06-.5a5.93,5.93,0,0,1,.52-1.61,4.28,4.28,0,0,1,.5-.79,4,4,0,0,1,.54-.55l.24-.17.19-.11.17-.08s-.22.15-.54.43a4.7,4.7,0,0,0-.51.55,5.08,5.08,0,0,0-.48.77,6.82,6.82,0,0,0-.54,1.57A5.78,5.78,0,0,1,351.31,240.57Z" style="fill:#fafafa"></path><path d="M355.12,236.17s-.14.09-.33.12-.34,0-.35,0,.15-.09.33-.12S355.12,236.14,355.12,236.17Z" style="fill:#fafafa"></path><path d="M375.23,272.22h9.41V240.28a4.7,4.7,0,0,0-4.7-4.71h0a4.71,4.71,0,0,0-4.71,4.71Z" style="fill:#FF725E"></path><path d="M375.23,272.22h9.41V240.28a4.7,4.7,0,0,0-4.7-4.71h0a4.71,4.71,0,0,0-4.71,4.71Z" style="fill:#455a64"></path><path d="M375.23,239.77s2.1-.06,4.69-.06,4.69,0,4.69.06-2.09.06-4.69.06S375.23,239.8,375.23,239.77Z" style="fill:#263238"></path><path d="M375.23,247.92s2.1-.06,4.69-.06,4.69,0,4.69.06-2.09.06-4.69.06S375.23,248,375.23,247.92Z" style="fill:#263238"></path><path d="M377.84,247.92s-.06-1.82-.06-4.08,0-4.07.06-4.07.06,1.82.06,4.07S377.88,247.92,377.84,247.92Z" style="fill:#263238"></path><path d="M379,242.14a.33.33,0,0,0,.33.33.33.33,0,0,0,0-.66A.33.33,0,0,0,379,242.14Z" style="fill:#263238"></path><path d="M379,245a.33.33,0,0,0,.33.33.33.33,0,0,0,0-.66A.33.33,0,0,0,379,245Z" style="fill:#263238"></path><path d="M375.23,264.51s2.1-.06,4.69-.06,4.69,0,4.69.06-2.09.06-4.69.06S375.23,264.54,375.23,264.51Z" style="fill:#263238"></path><path d="M377.84,264.51s-.06-1.83-.06-4.08,0-4.08.06-4.08.06,1.83.06,4.08S377.88,264.51,377.84,264.51Z" style="fill:#263238"></path><path d="M379,258.73a.33.33,0,0,0,.33.33.34.34,0,0,0,0-.67A.33.33,0,0,0,379,258.73Z" style="fill:#263238"></path><path d="M379,261.55a.33.33,0,0,0,.33.33.34.34,0,0,0,0-.67A.33.33,0,0,0,379,261.55Z" style="fill:#263238"></path><path d="M384.61,256.29s-2.1.06-4.69.06-4.69,0-4.69-.06,2.1-.06,4.69-.06S384.61,256.25,384.61,256.29Z" style="fill:#263238"></path><path d="M382,256.29s-.07-1.83-.07-4.08,0-4.08.07-4.08.06,1.83.06,4.08S382,256.29,382,256.29Z" style="fill:#263238"></path><path d="M380.9,250.51a.33.33,0,0,1-.33.33.33.33,0,0,1-.33-.33.33.33,0,0,1,.33-.33A.32.32,0,0,1,380.9,250.51Z" style="fill:#263238"></path><path d="M380.9,253.33a.33.33,0,0,1-.33.33.34.34,0,0,1,0-.67A.33.33,0,0,1,380.9,253.33Z" style="fill:#263238"></path><path d="M384,240.57a5.78,5.78,0,0,1-.15-.68,6.82,6.82,0,0,0-.54-1.57,6,6,0,0,0-.48-.77,4.7,4.7,0,0,0-.51-.55c-.32-.28-.56-.41-.55-.43a.74.74,0,0,1,.18.08l.19.11a2.68,2.68,0,0,1,.23.17,3.14,3.14,0,0,1,.54.55,4.3,4.3,0,0,1,.51.79,5.87,5.87,0,0,1,.51,1.61,4.84,4.84,0,0,1,.07.5Z" style="fill:#fff"></path><path d="M380.22,236.17s.16,0,.34,0,.34.08.33.12-.16,0-.35,0S380.21,236.21,380.22,236.17Z" style="fill:#fff"></path><path d="M364.88,223l-3.3,6.22a12.8,12.8,0,0,0-1.48,6v43.34l5.79,3.7h4l5.39-3.7V235.38a12.68,12.68,0,0,0-1.36-5.73L370.56,223a2.22,2.22,0,0,0-2-1.23H366.9A2.25,2.25,0,0,0,364.88,223Z" style="fill:#FF725E"></path><path d="M360.1,275.08H345.55a14.78,14.78,0,0,1,6.09-11c6.08-4.57,8.46-14.9,8.46-14.9Z" style="fill:#FF725E"></path><path d="M375.29,275.08h14.56a14.78,14.78,0,0,0-6.09-11c-6.09-4.57-8.47-14.9-8.47-14.9Z" style="fill:#FF725E"></path><g style="opacity:0.2"><path d="M360.1,275.08H345.55a14.78,14.78,0,0,1,6.09-11c6.08-4.57,8.46-14.9,8.46-14.9Z"></path></g><g style="opacity:0.2"><path d="M375.29,275.08h14.56a14.78,14.78,0,0,0-6.09-11c-6.09-4.57-8.47-14.9-8.47-14.9Z"></path></g><path d="M361.17,252.42s-.06-3.2-.06-7.14,0-7.15.06-7.15.07,3.2.07,7.15S361.21,252.42,361.17,252.42Z" style="fill:#fafafa"></path><ellipse cx="361.33" cy="234.54" rx="0.06" ry="0.65" style="fill:#fafafa"></ellipse><path d="M366,222.82s-1,2-2.22,4.47-2.3,4.42-2.33,4.4,1-2,2.22-4.46S366,222.81,366,222.82Z" style="fill:#fafafa"></path><path d="M358.53,256a.28.28,0,0,1,0,.06l0,.17-.05.27a2.35,2.35,0,0,1-.09.36,9.49,9.49,0,0,1-.9,2.2,15.8,15.8,0,0,1-2.1,2.83c-.89,1-2,2-3.09,3a22.62,22.62,0,0,0-2.88,3.19,17.5,17.5,0,0,0-1,1.57c-.28.52-.53,1-.72,1.46a12.66,12.66,0,0,0-.75,2.25c-.07.27-.1.49-.13.63l0,.17a.18.18,0,0,0,0,.05s0,0,0-.06l0-.16c0-.15,0-.37.11-.64a12.22,12.22,0,0,1,.72-2.27,11.71,11.71,0,0,1,.72-1.48,15.57,15.57,0,0,1,1-1.59,21.16,21.16,0,0,1,2.89-3.21c1.13-1,2.19-2,3.09-3a15.72,15.72,0,0,0,2.1-2.81,9.81,9.81,0,0,0,.94-2.16l.1-.36c0-.11,0-.19.06-.27l0-.16Z" style="fill:#fafafa"></path><path d="M369,236.61h-2.51a2.75,2.75,0,0,1-2.75-2.75h0a2.75,2.75,0,0,1,2.75-2.75H369a2.75,2.75,0,0,1,2.75,2.75h0A2.75,2.75,0,0,1,369,236.61Z" style="fill:#fff"></path><g style="opacity:0.4"><polyline points="360.1 278.53 365.89 282.23 369.9 282.23 375.29 278.53 375.29 277.01 360.1 277.01 360.1 278.53"></polyline></g><path d="M369.17,163.74A2,2,0,0,0,367,164.8a6,6,0,0,0-.65,2.48c-.35,3.34-.64,6.84.62,10,.36.87,1,1.83,2,1.73s1.45-1.29,1.65-2.28a37.45,37.45,0,0,0,.7-6.85,11.74,11.74,0,0,0-.35-3.45,5,5,0,0,0-1.94-2.8" style="fill:#FF725E"></path><g style="opacity:0.6000000000000001"><path d="M369.17,163.74A2,2,0,0,0,367,164.8a6,6,0,0,0-.65,2.48c-.35,3.34-.64,6.84.62,10,.36.87,1,1.83,2,1.73s1.45-1.29,1.65-2.28a37.45,37.45,0,0,0,.7-6.85,11.74,11.74,0,0,0-.35-3.45,5,5,0,0,0-1.94-2.8" style="fill:#fff"></path></g><path d="M368.65,165.2c.72,0,1.3,3.06,1.3,6.83s-.58,6.84-1.3,6.84-1.3-3.06-1.3-6.84S367.93,165.2,368.65,165.2Z" style="fill:#FF725E"></path><path d="M369.17,199.26a2.05,2.05,0,0,0-2.16,1.05,6.05,6.05,0,0,0-.65,2.49c-.35,3.34-.64,6.84.62,10,.36.87,1,1.83,2,1.73s1.45-1.29,1.65-2.28a37.45,37.45,0,0,0,.7-6.85,11.74,11.74,0,0,0-.35-3.45,5,5,0,0,0-1.94-2.8" style="fill:#FF725E"></path><g style="opacity:0.6000000000000001"><path d="M369.17,199.26a2.05,2.05,0,0,0-2.16,1.05,6.05,6.05,0,0,0-.65,2.49c-.35,3.34-.64,6.84.62,10,.36.87,1,1.83,2,1.73s1.45-1.29,1.65-2.28a37.45,37.45,0,0,0,.7-6.85,11.74,11.74,0,0,0-.35-3.45,5,5,0,0,0-1.94-2.8" style="fill:#fff"></path></g><path d="M368.65,200.72c.72,0,1.3,3.06,1.3,6.83s-.58,6.83-1.3,6.83-1.3-3-1.3-6.83S367.93,200.72,368.65,200.72Z" style="fill:#FF725E"></path><path d="M369.17,128.32a2.05,2.05,0,0,0-2.16,1.05,6.05,6.05,0,0,0-.65,2.49c-.35,3.34-.64,6.84.62,9.95.36.88,1,1.84,2,1.74s1.45-1.29,1.65-2.28a37.54,37.54,0,0,0,.7-6.85A11.74,11.74,0,0,0,371,131a5,5,0,0,0-1.94-2.8" style="fill:#FF725E"></path><g style="opacity:0.6000000000000001"><path d="M369.17,128.32a2.05,2.05,0,0,0-2.16,1.05,6.05,6.05,0,0,0-.65,2.49c-.35,3.34-.64,6.84.62,9.95.36.88,1,1.84,2,1.74s1.45-1.29,1.65-2.28a37.54,37.54,0,0,0,.7-6.85A11.74,11.74,0,0,0,371,131a5,5,0,0,0-1.94-2.8" style="fill:#fff"></path></g><path d="M368.65,129.77c.72,0,1.3,3.06,1.3,6.84s-.58,6.83-1.3,6.83-1.3-3.06-1.3-6.83S367.93,129.77,368.65,129.77Z" style="fill:#FF725E"></path><path d="M280.9,122.27H231.28a2.84,2.84,0,0,1-2.84-2.84h0a2.84,2.84,0,0,1,2.84-2.84H280.9a2.84,2.84,0,0,1,2.84,2.84h0A2.84,2.84,0,0,1,280.9,122.27Z" style="fill:#263238"></path><path d="M261.77,122.27H231.28a2.84,2.84,0,0,1-2.84-2.84h0a2.84,2.84,0,0,1,2.84-2.84h30.49Z" style="fill:#FF725E"></path><path d="M280.9,130.82H231.28a2.84,2.84,0,0,1-2.84-2.84h0a2.84,2.84,0,0,1,2.84-2.84H280.9a2.84,2.84,0,0,1,2.84,2.84h0A2.84,2.84,0,0,1,280.9,130.82Z" style="fill:#263238"></path><path d="M246,130.82h-14.7a2.84,2.84,0,0,1-2.84-2.84h0a2.84,2.84,0,0,1,2.84-2.84H246Z" style="fill:#FF725E"></path><path d="M234.82,111.48a16.14,16.14,0,0,1-3.88-2.54,4.23,4.23,0,0,1-1.43-3.66,2.61,2.61,0,0,1,3-2.16,3.85,3.85,0,0,1,2.2,2.19,2.69,2.69,0,0,1,4.58-1.42c1.22,1.23.94,3.39-.13,4.75a11,11,0,0,1-4.29,2.84" style="fill:#FF725E"></path><path d="M248.13,111.48a16.34,16.34,0,0,1-3.88-2.54,4.22,4.22,0,0,1-1.42-3.66,2.6,2.6,0,0,1,2.95-2.16,3.87,3.87,0,0,1,2.19,2.19,2.69,2.69,0,0,1,4.58-1.42c1.22,1.23.94,3.39-.13,4.75a11,11,0,0,1-4.29,2.84" style="fill:#FF725E"></path><path d="M261.45,111.48a16.2,16.2,0,0,1-3.89-2.54,4.25,4.25,0,0,1-1.42-3.66,2.6,2.6,0,0,1,2.95-2.16,3.87,3.87,0,0,1,2.19,2.19,2.78,2.78,0,0,1,1.86-2.11,2.74,2.74,0,0,1,2.72.69c1.22,1.23.94,3.39-.12,4.75a11,11,0,0,1-4.29,2.84" style="fill:#FF725E"></path><path d="M275.19,111.48a16.34,16.34,0,0,1-3.88-2.54,4.25,4.25,0,0,1-1.42-3.66,2.6,2.6,0,0,1,2.95-2.16,3.87,3.87,0,0,1,2.19,2.19,2.78,2.78,0,0,1,1.86-2.11,2.74,2.74,0,0,1,2.72.69c1.22,1.23.94,3.39-.13,4.75a11,11,0,0,1-4.29,2.84" style="fill:#e0e0e0"></path><path d="M276,163l.3.55a3.45,3.45,0,0,0,1.36,1.37l.56.3-.56.3a3.42,3.42,0,0,0-1.36,1.36l-.3.56-.3-.56a3.45,3.45,0,0,0-1.37-1.36l-.55-.3.55-.3a3.47,3.47,0,0,0,1.37-1.37Z" style="fill:#e0e0e0"></path><path d="M430.85,215.33l.3.55a3.45,3.45,0,0,0,1.37,1.36l.55.3-.55.31a3.45,3.45,0,0,0-1.37,1.36l-.3.55-.3-.55a3.45,3.45,0,0,0-1.37-1.36l-.55-.31.55-.3a3.45,3.45,0,0,0,1.37-1.36Z" style="fill:#e0e0e0"></path><path d="M340.27,184.57l.45.82a5.16,5.16,0,0,0,2,2l.81.45-.81.44a5.16,5.16,0,0,0-2,2l-.45.82-.44-.82a5.16,5.16,0,0,0-2-2l-.82-.44.82-.45a5.16,5.16,0,0,0,2-2Z" style="fill:#455a64"></path><path d="M460.21,247.84l.45.82a5,5,0,0,0,2,2l.81.44-.81.45a5,5,0,0,0-2,2l-.45.82-.45-.82a5,5,0,0,0-2-2l-.81-.45.81-.44a5,5,0,0,0,2-2Z" style="fill:#455a64"></path><path d="M281.45,283.44l.13.25a1.62,1.62,0,0,0,.61.61l.25.13-.25.14a1.62,1.62,0,0,0-.61.61l-.13.25-.14-.25a1.49,1.49,0,0,0-.61-.61l-.24-.14.24-.13a1.49,1.49,0,0,0,.61-.61Z" style="fill:#455a64"></path><path d="M312.52,231.8l.14.24a1.49,1.49,0,0,0,.61.61l.24.14-.24.13a1.56,1.56,0,0,0-.61.61l-.14.25-.13-.25a1.62,1.62,0,0,0-.61-.61l-.25-.13.25-.14a1.56,1.56,0,0,0,.61-.61Z" style="fill:#455a64"></path><path d="M415.68,285.18l.14.25a1.56,1.56,0,0,0,.61.61l.25.13-.25.14a1.49,1.49,0,0,0-.61.61l-.14.24-.13-.24a1.49,1.49,0,0,0-.61-.61l-.25-.14.25-.13a1.56,1.56,0,0,0,.61-.61Z" style="fill:#455a64"></path><path d="M404.72,189.3l.14.25a1.62,1.62,0,0,0,.61.61l.25.13-.25.14a1.49,1.49,0,0,0-.61.61l-.14.24-.13-.24a1.49,1.49,0,0,0-.61-.61l-.25-.14.25-.13a1.62,1.62,0,0,0,.61-.61Z" style="fill:#455a64"></path><path d="M496.26,206.79l.14.24a1.49,1.49,0,0,0,.61.61l.24.14-.24.13a1.56,1.56,0,0,0-.61.61l-.14.25-.13-.25a1.62,1.62,0,0,0-.61-.61l-.25-.13.25-.14a1.56,1.56,0,0,0,.61-.61Z" style="fill:#455a64"></path><path d="M325.46,157.56l.14.25a1.49,1.49,0,0,0,.61.61l.25.14-.25.13a1.49,1.49,0,0,0-.61.61l-.14.25-.13-.25a1.49,1.49,0,0,0-.61-.61l-.25-.13.25-.14a1.49,1.49,0,0,0,.61-.61Z" style="fill:#455a64"></path><path d="M267.65,142.56l.14.25a1.49,1.49,0,0,0,.61.61l.25.13-.25.14a1.49,1.49,0,0,0-.61.61l-.14.25-.13-.25a1.49,1.49,0,0,0-.61-.61l-.25-.14.25-.13a1.49,1.49,0,0,0,.61-.61Z" style="fill:#455a64"></path><path d="M314.74,277.71l.3.55a3.45,3.45,0,0,0,1.37,1.36l.55.31-.55.3a3.45,3.45,0,0,0-1.37,1.36l-.3.55-.3-.55a3.45,3.45,0,0,0-1.37-1.36l-.55-.3.55-.31a3.45,3.45,0,0,0,1.37-1.36Z" style="fill:#e0e0e0"></path><path d="M494.18,239.25l.3.55a3.45,3.45,0,0,0,1.36,1.37l.56.3-.56.3a3.45,3.45,0,0,0-1.36,1.37l-.3.55-.3-.55a3.47,3.47,0,0,0-1.37-1.37l-.55-.3.55-.3a3.47,3.47,0,0,0,1.37-1.37Z" style="fill:#e0e0e0"></path><path d="M329.57,118.88l.31.55a3.38,3.38,0,0,0,1.36,1.37l.55.3-.55.3a3.36,3.36,0,0,0-1.36,1.36l-.31.56-.3-.56a3.42,3.42,0,0,0-1.36-1.36l-.56-.3.56-.3a3.45,3.45,0,0,0,1.36-1.37Z" style="fill:#e0e0e0"></path><path d="M255.82,272.76c4.77-2.84,8.57-6.79,13.94-8.85,7.76-3,17.6-1.49,24.75-5.32,7.55-4,9.13-12.45,8-19.66s-4.25-14.32-3.34-21.54c.89-7,5.5-13.82,3.59-20.67-1.72-6.16-8.35-10.63-15.07-14s-14.1-6.14-19.17-11c-6.37-6.11-9.21-15.42-18.59-18.07-6.59-1.87-13.82.47-19.87,3.26a104.84,104.84,0,0,1-11.91,5.15v22.56a44.9,44.9,0,1,1,0,72v15.82a34,34,0,0,0,8.79,3.83C236.53,279,247.7,277.6,255.82,272.76Z" style="fill:#ebebeb"></path><path d="M466.06,142.05a39.17,39.17,0,0,1-29.47-11.15c-7.66-7.59-11.79-18-18.15-26.69a40.67,40.67,0,0,0-8.63-8.75H390.38a79.29,79.29,0,0,0-.24,38.55,56.64,56.64,0,0,1,15.79,3.39c15.82,6.23,19.82,15,37,32.15s35.36-7,54.12-3.75c6.72,1.15,13.84,4,20.23,7.16V132.39C500.24,128.22,483.59,141,466.06,142.05Z" style="fill:#FF725E"></path><path d="M515.29,95.46q.51.06,1,.15l.94.18v-.33Z" style="fill:#FF725E"></path><path d="M510,95.46H458.37q1.8,1.88,3.82,3.9C477.42,114.58,493.49,97.28,510,95.46Z" style="fill:#FF725E"></path><path d="M515.29,95.46H510c-16.54,1.82-32.61,19.12-47.84,3.9q-2-2-3.82-3.9H409.81a40.67,40.67,0,0,1,8.63,8.75c6.36,8.71,10.49,19.1,18.15,26.69a39.17,39.17,0,0,0,29.47,11.15c17.53-1,34.18-13.83,51.19-9.66V95.79l-.94-.18Q515.8,95.52,515.29,95.46Z" style="fill:#FF725E"></path><g style="opacity:0.4"><path d="M515.29,95.46H510c-16.54,1.82-32.61,19.12-47.84,3.9q-2-2-3.82-3.9H409.81a40.67,40.67,0,0,1,8.63,8.75c6.36,8.71,10.49,19.1,18.15,26.69a39.17,39.17,0,0,0,29.47,11.15c17.53-1,34.18-13.83,51.19-9.66V95.79l-.94-.18Q515.8,95.52,515.29,95.46Z" style="fill:#fff"></path></g><path d="M442.9,169.55c-17.15-17.14-21.15-25.92-37-32.15A56.64,56.64,0,0,0,390.14,134a79,79,0,0,0,127.11,42.12V173c-6.39-3.17-13.51-6-20.23-7.16C478.26,162.59,460.05,186.7,442.9,169.55Z" style="fill:#FF725E"></path><path d="M289.86,220.68a44.9,44.9,0,0,0-71.71-36v72a44.9,44.9,0,0,0,71.71-36Z" style="fill:#455a64"></path><path d="M444.5,294.92h72.75V275.17A43.09,43.09,0,0,0,498,264.64C475.48,259.06,452.5,272.44,444.5,294.92Z" style="fill:#263238"></path><g style="opacity:0.4"><path d="M442.9,169.55c-17.15-17.14-21.15-25.92-37-32.15A56.64,56.64,0,0,0,390.14,134a79,79,0,0,0,127.11,42.12V173c-6.39-3.17-13.51-6-20.23-7.16C478.26,162.59,460.05,186.7,442.9,169.55Z" style="fill:#fff"></path></g><rect x="494.66" y="297.27" width="12.49" height="1.52" style="fill:#FF725E"></rect><path d="M441.93,111.5l.33-.72a3.3,3.3,0,0,0,2.11.74c1.1,0,1.57-.42,1.57-1,0-1.56-3.86-.57-3.86-2.94,0-1,.77-1.83,2.44-1.83a3.79,3.79,0,0,1,2.05.57l-.3.73a3.23,3.23,0,0,0-1.75-.52c-1.08,0-1.55.45-1.55,1,0,1.56,3.87.58,3.87,2.92,0,1-.79,1.82-2.47,1.82A3.79,3.79,0,0,1,441.93,111.5Z" style="fill:#263238"></path><path d="M447.65,109a3.23,3.23,0,0,1,3.38-3.27,3.14,3.14,0,0,1,2.42,1l-.59.57a2.34,2.34,0,0,0-1.79-.75,2.45,2.45,0,1,0,0,4.9,2.36,2.36,0,0,0,1.79-.77l.59.58a3.18,3.18,0,0,1-2.43,1A3.23,3.23,0,0,1,447.65,109Z" style="fill:#263238"></path><path d="M454.1,109a3.39,3.39,0,1,1,3.4,3.26A3.25,3.25,0,0,1,454.1,109Zm5.87,0a2.48,2.48,0,1,0-2.47,2.45A2.39,2.39,0,0,0,460,109Z" style="fill:#263238"></path><path d="M466.54,112.22l-1.38-2h-2v1.94h-.91v-6.37h2.48c1.66,0,2.66.84,2.66,2.22a2,2,0,0,1-1.4,2l1.51,2.14Zm0-4.15c0-.91-.61-1.43-1.78-1.43h-1.54v2.87h1.54C465.9,109.51,466.51,109,466.51,108.07Z" style="fill:#263238"></path><path d="M473.53,111.43v.79H468.9v-6.37h4.5v.79h-3.59v2H473v.77h-3.2v2.06Z" style="fill:#263238"></path><path d="M476.94,109c0-2.08,1.11-3.27,2.6-3.27s2.6,1.19,2.6,3.27-1.11,3.26-2.6,3.26S476.94,111.11,476.94,109Zm4.29,0c0-1.63-.69-2.45-1.69-2.45s-1.69.82-1.69,2.45.69,2.45,1.69,2.45S481.23,110.67,481.23,109Z" style="fill:#263238"></path><path d="M483,109c0-2.08,1.11-3.27,2.6-3.27s2.6,1.19,2.6,3.27-1.11,3.26-2.6,3.26S483,111.11,483,109Zm4.29,0c0-1.63-.7-2.45-1.69-2.45s-1.69.82-1.69,2.45.69,2.45,1.69,2.45S487.31,110.67,487.31,109Z" style="fill:#263238"></path><path d="M491,105.85v6.37h-.9v-5.58H488.7v-.79Z" style="fill:#263238"></path><path d="M496.92,111.43v.79h-4.58v-.62l2.6-2.5c.67-.66.8-1.06.8-1.46,0-.65-.47-1-1.36-1a2,2,0,0,0-1.63.69l-.62-.54a2.94,2.94,0,0,1,2.33-1c1.33,0,2.19.69,2.19,1.78a2.58,2.58,0,0,1-1,2l-2,1.87Z" style="fill:#263238"></path><path d="M503,110.66h-1.21v1.56H501v-1.56H497.4V110l3.27-4.17h1l-3.12,4H501v-1.38h.85v1.38H503Z" style="fill:#263238"></path><path d="M509.14,110.66h-1.21v1.56H507v-1.56H503.5V110l3.26-4.17h1l-3.13,4h2.45v-1.38h.86v1.38h1.21Z" style="fill:#263238"></path></g><g id="freepik--Drink--inject-74"><path d="M409.3,470.53a56.67,56.67,0,0,1-11.93,0,5.25,5.25,0,0,1-4.69-5.22H414A5.28,5.28,0,0,1,409.3,470.53Z" style="fill:#e0e0e0"></path><path d="M412.77,469.14a44,44,0,0,1-18.86.05,5.28,5.28,0,0,1-4.13-5.16V431.5a5.27,5.27,0,0,1,5.27-5.27h16.6a5.27,5.27,0,0,1,5.27,5.27V464A5.27,5.27,0,0,1,412.77,469.14Z" style="fill:#FF725E"></path><path d="M416,428.56c.42,1.35-.6,3.07-2.87,4.52a20,20,0,0,1-19.43.12c-2.28-1.42-3.32-3.13-2.92-4.49s2.1-2.22,4.36-2.73a39.54,39.54,0,0,1,8.23-.74,40.36,40.36,0,0,1,8.24.64C413.83,426.36,415.53,427.17,416,428.56Z" style="fill:#e0e0e0"></path><path d="M411,428.11a8.09,8.09,0,0,0-3.72.31c-.54.17-1.15.54-1.11,1.1s.5.78.94,1a7.55,7.55,0,0,0,6-.14c.44-.21.92-.6.79-1.07a1,1,0,0,0-.51-.53,5.5,5.5,0,0,0-2.68-.76" style="fill:#263238"></path><path d="M416.92,444.25a2.84,2.84,0,0,1-.69.61,5.38,5.38,0,0,1-2.48.91,6.18,6.18,0,0,1-4.05-.93,5.05,5.05,0,0,1-1.77-2,2.32,2.32,0,0,1-.24-1.48,1.49,1.49,0,0,1,1.11-1.17,2,2,0,0,1,1.57.59,7,7,0,0,1,1.15,1.22,8,8,0,0,1,1.39,3.25,7.42,7.42,0,0,1-.27,3.78,6.8,6.8,0,0,1-2.42,3.21,7.35,7.35,0,0,1-4,1.43,6.14,6.14,0,0,1-4.19-1.32,7.09,7.09,0,0,1-2.48-3.84,6.28,6.28,0,0,1-.11-2.37,2.67,2.67,0,0,1,1.24-2.13,1.43,1.43,0,0,1,1.51.22,3,3,0,0,1,.8,1.17,11.47,11.47,0,0,1,.6,2.58,14.69,14.69,0,0,1-.24,5.09,14.31,14.31,0,0,1-1.88,4.51,6.71,6.71,0,0,1-3.59,2.95,4.54,4.54,0,0,1-4.19-1.11,7.05,7.05,0,0,1-2.14-3.43,8.61,8.61,0,0,1,.81-6.78l.17-.28.12.3a9.76,9.76,0,0,1,.73,4.31,10.37,10.37,0,0,1-.69,3.18,7.13,7.13,0,0,1-1.38,2.33,13.16,13.16,0,0,0,1.22-2.4,10.3,10.3,0,0,0,.59-3.12,9.74,9.74,0,0,0-.77-4.17h.29a8.33,8.33,0,0,0-.7,6.51,6.8,6.8,0,0,0,2,3.21,4.13,4.13,0,0,0,3.78,1,6.25,6.25,0,0,0,3.3-2.77,13.5,13.5,0,0,0,1.79-4.35,14.2,14.2,0,0,0,.23-4.92,11.71,11.71,0,0,0-.57-2.44,2.41,2.41,0,0,0-.65-1,.88.88,0,0,0-1-.15,2.22,2.22,0,0,0-.95,1.74,5.46,5.46,0,0,0,.11,2.17,6.61,6.61,0,0,0,2.28,3.56,5.74,5.74,0,0,0,3.86,1.23,6.84,6.84,0,0,0,3.71-1.33,6.39,6.39,0,0,0,2.27-3,7,7,0,0,0,.27-3.55,7.42,7.42,0,0,0-1.29-3.09,6.65,6.65,0,0,0-1.07-1.17,1.65,1.65,0,0,0-1.25-.52,1.12,1.12,0,0,0-.83.89,1.92,1.92,0,0,0,.19,1.26,4.78,4.78,0,0,0,1.63,1.86,6,6,0,0,0,3.87,1,5.56,5.56,0,0,0,2.44-.79C416.68,444.46,416.89,444.23,416.92,444.25Z" style="fill:#fafafa"></path></g><g id="freepik--Character--inject-74"><path d="M164.92,402.77s-8.57,9.79-3.27,21.21,26.11,29,42,36.72,37.53,6.52,37.53,6.52,20.8,1.37,33.45.07,53-13.94,78.72-37.6,10.2-35.89,4.08-36.3a103.69,103.69,0,0,0-47.36,8.07c-22,9.39-51.88,15.88-51.88,15.88s-50.42-2-72.9-13.75C172.43,396.84,164.92,402.77,164.92,402.77Z" style="fill:#263238"></path><path d="M328.43,404.6a2.33,2.33,0,0,1-.48.25l-1.4.61c-1.21.53-3,1.25-5.2,2.11-4.42,1.72-10.6,3.92-17.47,6.17s-13.13,4.18-17.66,5.6L280.87,421l-1.47.44a1.78,1.78,0,0,1-.52.11,2.51,2.51,0,0,1,.49-.21l1.43-.53c1.25-.45,3.06-1.07,5.31-1.83l17.61-5.75c6.87-2.24,13-4.39,17.5-6l5.26-2,1.43-.52A2.1,2.1,0,0,1,328.43,404.6Z" style="fill:#455a64"></path><path d="M245.53,468a7.13,7.13,0,0,1-1.3-.52c-.83-.36-2-.91-3.46-1.63a42,42,0,0,1-10.49-7,20.74,20.74,0,0,1-6.1-11A13.91,13.91,0,0,1,224,444a8.07,8.07,0,0,1,.17-1c0-.23.08-.35.1-.35a20.31,20.31,0,0,0,.25,5.16,21.19,21.19,0,0,0,6.1,10.66,45.58,45.58,0,0,0,10.3,7.09l3.38,1.78A7.38,7.38,0,0,1,245.53,468Z" style="fill:#455a64"></path><path d="M261.1,466.92l.4-.06,1.16-.09,4.38-.29,15.5-.88-.22.25a19.23,19.23,0,0,0-2.18-7.82,11.36,11.36,0,0,0-2.75-3.37,9.3,9.3,0,0,0-4-2h.09l-.73.16-23.66,5.27.13-.31a20.75,20.75,0,0,0,8.06,7.5,21.37,21.37,0,0,0,2.81,1.23c.66.23,1,.35,1,.37l-.27-.05c-.18,0-.45-.1-.79-.2a19.76,19.76,0,0,1-2.88-1.14,20.49,20.49,0,0,1-8.3-7.5l-.16-.24.29-.07,23.64-5.37.72-.16h.09a10.69,10.69,0,0,1,7.14,5.6,19.59,19.59,0,0,1,2.21,8l0,.24h-.24l-15.55.69-4.37.16-1.16,0A1.44,1.44,0,0,1,261.1,466.92Z" style="fill:#455a64"></path><path d="M221.16,466a4.23,4.23,0,0,1-.86-.49,16.08,16.08,0,0,1-2.18-1.72,13.16,13.16,0,0,1-2.59-3.36,19.93,19.93,0,0,1-1.82-5.06l.18.19-5.61-1.45c-3.4-.86-6.59-1.66-9.31-2.2l.26-.25a37.51,37.51,0,0,0,.66,3.8,11,11,0,0,0,1.05,2.76,19.53,19.53,0,0,0,1.51,2.11,2.88,2.88,0,0,1-.53-.45,8.54,8.54,0,0,1-1.2-1.53,10.26,10.26,0,0,1-1.18-2.79,33.56,33.56,0,0,1-.75-3.84l0-.31.31.06c2.75.5,5.95,1.27,9.36,2.13,2,.5,3.87,1,5.61,1.48l.14,0,0,.14a20.25,20.25,0,0,0,1.71,5,13.49,13.49,0,0,0,2.44,3.34C220,465.17,221.22,465.88,221.16,466Z" style="fill:#455a64"></path><path d="M285.94,330.17s15.73-2.12,20,2.32,5.19,21.3,0,21.89-8.34-12.1-8.34-12.1h-7.34Z" style="fill:#263238"></path><path d="M293.68,347.7l1.78-5.5.4-2.07c.17-.85.35-1.79.51-2.86a11.37,11.37,0,0,0-.08-3.77A17.16,17.16,0,0,0,295,329c-.71-1.25.42-2.73,1.6-2.2s3.21,3.92,3.66,8.55,4.25-.13,5.71-2.31c1.92-2.88,5.74-1.16,4.34,2.32a2.5,2.5,0,0,1,1.73,1.15,4.38,4.38,0,0,1,.18,3.37,11.43,11.43,0,0,1,.27,4.34,16.8,16.8,0,0,1-2.55,6.51l-6.44,7.13" style="fill:#ffbe9d"></path><path d="M224.42,288.74c-5.47-9.25-7-21.57-8.43-32.23-.65-5-1.79-12.15,1.73-15.29,3.78-3.36,4.15-8.55,8.49-11.14s10.23-2.81,14.32.16" style="fill:#263238"></path><path d="M239.58,321.5h0a14.84,14.84,0,0,0,16-14.18c.33-8.08.63-16.25.63-16.25s12.24-1.11,13.17-13.22.6-40.08.6-40.08h0a42.23,42.23,0,0,0-42.68,2.61l.63,42.65L227.88,306C227.94,313.66,231.91,320.89,239.58,321.5Z" style="fill:#ffbe9d"></path><path d="M257.36,263c-2.09-2.59-5.48-3.63-8.28-1.83a7.05,7.05,0,0,0-2.37,8.8,9.31,9.31,0,0,0,5.93,4.51,4.66,4.66,0,0,1,3.63,5c-.36,3-5.42,4.17-7.71,6.68-3.56,3.9-11.36,5.54-16.61,6.14s-4.54.65-7.53-3.6a16.27,16.27,0,0,1-2.92-9.85l-.48-26.8a38.6,38.6,0,0,1,.64-9.61,12.94,12.94,0,0,1,5.1-7.94c3-1.93,6.68-2.08,10-3.16,4.2-1.34,7.77-4.11,11.71-6.11s8.74-3.18,12.68-1.19c2.82,1.42,4.71,4.25,7.46,5.83,3.91,2.23,9.24,1.74,11.13,7.51a9.83,9.83,0,0,1-.08,6.16c-2.68,7.83-12.4,11-19.38,7.55-.14,1.33,1.16,4.29-.25,8.48-.46,1.34-.62,3.38-2.71,3.41" style="fill:#263238"></path><path d="M255.17,270.58s0,.23-.17.52a1.77,1.77,0,0,1-1.36.67c-1.35.13-3.08-1.34-3.13-3.35a3.53,3.53,0,0,1,.9-2.56,3.63,3.63,0,0,1,1.9-1.09c1.25-.25,2,.21,1.92.29s-.75-.06-1.75.3a3,3,0,0,0-2.1,3,2.82,2.82,0,0,0,2.27,2.78C254.66,271.22,255.08,270.5,255.17,270.58Z" style="fill:#eb996e"></path><path d="M220.28,255A15,15,0,0,0,209.91,247a12.71,12.71,0,0,0-12.11,4.39,11,11,0,0,0-.58,12.65c2.91,4.26,8.52,5.61,13.64,6.3a21.09,21.09,0,0,1-15,7.14,13.62,13.62,0,0,0,13.86.7l-8.35,7.08a18.59,18.59,0,0,0,15.35-33.14" style="fill:#263238"></path><path d="M212.58,269.8a8.57,8.57,0,0,0,4-.71,10.31,10.31,0,0,0,5.42-7.85,11.14,11.14,0,0,0-2.86-9.19,22.54,22.54,0,0,0-3.24-2.66s.43,0,1.1.38a9.9,9.9,0,0,1,2.58,1.86,11.18,11.18,0,0,1,3.27,9.74c-.58,4.19-3.45,7.33-6,8.28a6.29,6.29,0,0,1-3.17.49C212.94,270,212.56,269.84,212.58,269.8Z" style="fill:#FF725E"></path><path d="M195.06,257.57c-.09,0,.64-1.73,3.18-2.87s6.33-1.44,10.32-.61a22.93,22.93,0,0,1,9.4,4.33,18,18,0,0,1,2.32,2.13c.48.56.72.89.68.93s-1.22-1.1-3.36-2.57a25.51,25.51,0,0,0-9.22-4c-3.85-.8-7.53-.63-9.9.32A10.4,10.4,0,0,0,195.06,257.57Z" style="fill:#455a64"></path><path d="M198.71,265.71c0-.13,1.15.13,3,.16A15.4,15.4,0,0,0,214,260.14c1.16-1.4,1.68-2.42,1.8-2.36a6.34,6.34,0,0,1-1.31,2.73,14.08,14.08,0,0,1-12.85,6A6.16,6.16,0,0,1,198.71,265.71Z" style="fill:#455a64"></path><path d="M217.11,282c-.08-.12,1.14-.87,2.69-2.49A16.85,16.85,0,0,0,224,263.4c-.57-2.18-1.26-3.42-1.13-3.49a8.32,8.32,0,0,1,1.71,3.31A15.95,15.95,0,0,1,220.23,280,8.2,8.2,0,0,1,217.11,282Z" style="fill:#455a64"></path><path d="M242.66,234a9.72,9.72,0,0,0-10.14-.87,12.9,12.9,0,0,0-5,4.52c-2.72,4.09-3.38,8.67-3.92,11.85a31.17,31.17,0,0,1-.95,5.21,32.82,32.82,0,0,1,.35-5.29c.39-3.2.94-7.93,3.8-12.25a13.3,13.3,0,0,1,5.35-4.76,10.55,10.55,0,0,1,5.79-.87,8.2,8.2,0,0,1,3.68,1.44C242.4,233.55,242.69,234,242.66,234Z" style="fill:#455a64"></path><path d="M276.74,246.51a9.47,9.47,0,0,0,1.47-.85,3.9,3.9,0,0,0,1.4-4,4,4,0,0,0-1.75-2.37,6,6,0,0,0-3.43-.56,10.17,10.17,0,0,1-2.1-.12,5,5,0,0,1-2.08-.94,25.16,25.16,0,0,1-3.08-3.3,14.71,14.71,0,0,0-7.08-4.18,16.06,16.06,0,0,0-6.8-.35c-3.9.64-5.88,2.34-6,2.15a5.33,5.33,0,0,1,1.39-1.06,13.85,13.85,0,0,1,4.47-1.7,16.08,16.08,0,0,1,7.1.18,15.09,15.09,0,0,1,7.53,4.38,26.55,26.55,0,0,0,2.95,3.2,5.32,5.32,0,0,0,3.67.94,6.55,6.55,0,0,1,3.82.76,4.61,4.61,0,0,1,1.95,2.83,4,4,0,0,1-.38,2.79,4.43,4.43,0,0,1-1.41,1.58,3.33,3.33,0,0,1-1.21.54A.87.87,0,0,1,276.74,246.51Z" style="fill:#455a64"></path><path d="M223.28,262.28c0-.18,2.26.26,5.86-.12a28.39,28.39,0,0,0,13.09-4.72c4.54-3.06,7.74-7.16,8.79-10.57a10.63,10.63,0,0,0,.2-5.71,3.8,3.8,0,0,1,.59,1.49,9.24,9.24,0,0,1-.2,4.39c-1,3.65-4.21,8-8.9,11.12a27,27,0,0,1-13.52,4.61,22.46,22.46,0,0,1-4.35-.14A5.57,5.57,0,0,1,223.28,262.28Z" style="fill:#455a64"></path><path d="M260.78,306a221.36,221.36,0,0,0-33.09-2.29s-21.68,2.58-24.07,8.5c-2.27,5.64,6.42,69.74,4.57,70l-11.53,35.34s.84,24.54,29.07,25.78c30.41,1.33,50.19-13.95,53.15-21.75,0,0-10.81-26.54-10.81-27.76s-2-22.44-2-22.44l1.17-7.83c7.89,16.17,17.53,33.53,22.13,33.53,8.52,0,20.35-2.39,20.76-12,.29-7-18.08-44.09-28.2-63.95A28.15,28.15,0,0,0,260.78,306Z" style="fill:#FF725E"></path><path d="M203.62,312.21c-3.67,1.64-30.59,63.64-25.7,69.35,4,4.64,8.76,11.35,18.3,7.28A20.9,20.9,0,0,0,206,380l9.41-16.35Z" style="fill:#FF725E"></path><path d="M310.09,386.56c0-1.5-1.57-32.38-6.44-35.4a20.24,20.24,0,0,0-10.84-2.6Z" style="fill:#FF725E"></path><path d="M305.85,371.68a4.45,4.45,0,0,1-.54-1L304,367.89l-4.3-9.21c-1.68-3.61-3.16-6.89-4.17-9.29-.51-1.2-.91-2.18-1.17-2.86a4.62,4.62,0,0,1-.35-1.08,5.73,5.73,0,0,1,.54,1l1.32,2.79,4.3,9.22c1.67,3.6,3.15,6.88,4.17,9.28.51,1.2.9,2.18,1.16,2.86A5.07,5.07,0,0,1,305.85,371.68Z" style="fill:#263238"></path><path d="M244.23,280.12a4.41,4.41,0,0,1-1.78-.68A9.64,9.64,0,0,1,238,268.11a9.94,9.94,0,0,1,2.37-4,18.05,18.05,0,0,1,4-2.91c1.44-.84,2.87-1.58,4.14-2.43a13.28,13.28,0,0,0,3.2-2.93,14.49,14.49,0,0,0,2.88-6.75c.62-4.26-.7-6.82-.49-6.85,0,0,.11.14.25.43a7.67,7.67,0,0,1,.47,1.33,13.16,13.16,0,0,1,.38,5.17,14.68,14.68,0,0,1-2.86,7.16,14.08,14.08,0,0,1-3.36,3.15c-1.32.89-2.76,1.65-4.18,2.47a17.19,17.19,0,0,0-3.79,2.76,9.32,9.32,0,0,0-1.68,10.75,10,10,0,0,0,3.3,3.69C243.62,279.82,244.26,280.05,244.23,280.12Z" style="fill:#455a64"></path><g style="opacity:0.30000000000000004"><path d="M255.68,337.6c-.78,16.72-1.43,34.12,5.25,49.47,1.1,2.53,2.59,5.16,5.14,6.2.44.18,1,.27,1.32-.1s.61-.43.59-.73c-.13-2.69-.68-5.52-.81-8.21-.22-4.52-1.14-12.87-1.14-12.87,0,.32,1.12-7.5,1.12-7.5-2.36-7.77-11.48-25.26-11.48-25.26"></path></g><path d="M173.83,405.79c.06-.12,5.06,2.4,11.16,5.65s11,6,10.93,6.11-5.07-2.4-11.17-5.65S173.76,405.92,173.83,405.79Z" style="fill:#455a64"></path><path d="M186.13,411.81a11.06,11.06,0,0,1-2.57-2.09,10.87,10.87,0,0,1-2.2-2.47,10.32,10.32,0,0,1,2.56,2.09A10.55,10.55,0,0,1,186.13,411.81Z" style="fill:#455a64"></path><path d="M343.57,399.57a33.6,33.6,0,0,0-8.16,1.23,34.53,34.53,0,0,0-7.41,3.63,8,8,0,0,1,1.89-1.57,20.91,20.91,0,0,1,11.23-3.51A7.79,7.79,0,0,1,343.57,399.57Z" style="fill:#455a64"></path><path d="M328.65,400.58c.09.12-.86.85-1.51,2.11s-.75,2.43-.91,2.42a3.38,3.38,0,0,1,.45-2.67C327.41,401.05,328.59,400.45,328.65,400.58Z" style="fill:#455a64"></path><g style="opacity:0.30000000000000004"><path d="M206.9,414.35c11.71,5,22.62,3.82,32-2.68,3.63-2.51,9.63-12,9.51-12.42-4.62,4.15-10.73,5.63-16.29,8.42s-12.19,4-18.06,2a32.68,32.68,0,0,0-5.53-1.93c-1.93-.3-4.19.24-5.15,1.94s.36,4.41,2.29,4.11"></path></g><path d="M251.54,380.81s.05.14.1.41.12.68.16,1.2a28.8,28.8,0,0,1,.14,4.46,33.08,33.08,0,0,1-13.35,25.26,29.32,29.32,0,0,1-3.76,2.4c-.46.26-.84.42-1.09.54s-.39.17-.4.15a13.59,13.59,0,0,1,1.39-.86,38.68,38.68,0,0,0,3.64-2.52,34.23,34.23,0,0,0,13.2-25,36.64,36.64,0,0,0,0-4.42A13.25,13.25,0,0,1,251.54,380.81Z" style="fill:#263238"></path><path d="M283.7,326.7a21.2,21.2,0,0,1-3.41.15l-9.36.07c-7.9,0-18.82,0-30.87-.1l-30.88-.3-9.36-.16-2.54-.07a5.2,5.2,0,0,1-.89-.06,5.61,5.61,0,0,1,.89,0l2.54,0h9.36l30.88.15,30.87.25Z" style="fill:#fafafa"></path><path d="M287.42,332.06a23.73,23.73,0,0,1-3.67.16l-10.06.06c-8.5,0-20.23,0-33.19-.12l-33.2-.31-10.06-.16-2.73-.07-.71,0-.25,0,.25,0,.71,0,2.73,0H207.3l33.2.16,33.19.27Z" style="fill:#fafafa"></path><path d="M289.73,336.93a4.75,4.75,0,0,1-1,.07l-2.87.06-10.57.07-34.84,0-34.86-.22-10.56-.13-2.87-.06-.75,0a.79.79,0,0,1-.25,0,.67.67,0,0,1,.25,0l.75,0,2.87,0,10.56,0,34.86.07,34.85.19,10.56.09,2.87,0C289.4,336.91,289.77,336.92,289.73,336.93Z" style="fill:#fafafa"></path><path d="M259.86,309.72a3.52,3.52,0,0,1-.61.49,16.67,16.67,0,0,0-1.72,1.4,15.3,15.3,0,0,0-4.2,6.84,25,25,0,0,0-.1,11.93,43.69,43.69,0,0,0,2,6.84c.44,1.16,1,2.3,1.51,3.46s1.08,2.35,1.64,3.55c4.37,9.6,8.34,18.28,11.23,24.62l3.36,7.49c.36.85.66,1.53.88,2a3.83,3.83,0,0,1,.28.73,4.31,4.31,0,0,1-.37-.68l-1-2-3.5-7.41L258,344.46c-.56-1.2-1.1-2.38-1.64-3.55s-1.08-2.34-1.52-3.51a43.13,43.13,0,0,1-2-6.92,24.94,24.94,0,0,1,.22-12.14,15.12,15.12,0,0,1,4.41-6.88,14,14,0,0,1,1.8-1.34A4.59,4.59,0,0,1,259.86,309.72Z" style="fill:#263238"></path><path d="M203.62,312.21a3.69,3.69,0,0,1-.1.72c-.09.51-.22,1.18-.38,2-.08.45-.18.93-.28,1.46a13.78,13.78,0,0,0-.28,1.74c-.16,1.27-.33,2.7-.52,4.28a95.3,95.3,0,0,0,1.6,24.8c1.71,9.59,3.83,18.21,4.41,24.61.15,1.59.3,3,.31,4.31a32.52,32.52,0,0,1,0,3.27c0,.85-.09,1.53-.13,2.05a5.21,5.21,0,0,1-.07.72,3.35,3.35,0,0,1,0-.72c0-.52,0-1.21,0-2.06s0-2-.1-3.25-.21-2.7-.39-4.28c-.66-6.36-2.84-14.94-4.56-24.56a91.54,91.54,0,0,1-1.45-24.93c.22-1.58.42-3,.6-4.28a13.7,13.7,0,0,1,.32-1.75l.33-1.45.48-2A4.54,4.54,0,0,1,203.62,312.21Z" style="fill:#263238"></path><path d="M277.16,417.12a.75.75,0,0,1-.12.22l-.4.62a24.62,24.62,0,0,1-1.64,2.33,39.78,39.78,0,0,1-7.46,7.37,52.64,52.64,0,0,1-13.63,7.44,61.54,61.54,0,0,1-8.83,2.61,68.56,68.56,0,0,1-9.77,1.44,44.92,44.92,0,0,1-18.84-2.32A30.39,30.39,0,0,1,203.76,428a26.77,26.77,0,0,1-3.33-5,23.47,23.47,0,0,1-1.65-4.22,19.35,19.35,0,0,1-.56-2.8c0-.29-.06-.54-.08-.73a.74.74,0,0,1,0-.26,1,1,0,0,1,.06.25c0,.19.08.43.13.73a22.32,22.32,0,0,0,.66,2.76,23.68,23.68,0,0,0,1.71,4.13,26.3,26.3,0,0,0,3.35,4.87,30.22,30.22,0,0,0,12.6,8.61,45.08,45.08,0,0,0,18.64,2.25,67.66,67.66,0,0,0,9.69-1.42,62,62,0,0,0,8.77-2.56,53.31,53.31,0,0,0,13.58-7.29,41.55,41.55,0,0,0,7.52-7.19c.8-.94,1.33-1.74,1.72-2.26l.44-.6A1.1,1.1,0,0,1,277.16,417.12Z" style="fill:#fafafa"></path><path d="M275.33,414.93l-.17.17-.53.47c-.47.42-1.17,1-2.08,1.76-1.82,1.5-4.5,3.64-8,6.06a77.82,77.82,0,0,1-12.91,7.35,51,51,0,0,1-17.61,4.39,36.41,36.41,0,0,1-17.81-3.26,30.45,30.45,0,0,1-11.36-9.46,25.36,25.36,0,0,1-4.2-9.07c-.11-.57-.21-1.09-.3-1.54s-.09-.84-.12-1.15-.05-.52-.06-.71,0-.24,0-.24a.81.81,0,0,1,.06.24c0,.19.07.42.11.7s.09.69.18,1.13.21,1,.34,1.52a25.82,25.82,0,0,0,4.29,8.9,30.51,30.51,0,0,0,11.28,9.25A36.23,36.23,0,0,0,234,434.61a51.31,51.31,0,0,0,17.45-4.31,80.2,80.2,0,0,0,12.89-7.21c3.49-2.38,6.19-4.46,8.05-5.92l2.14-1.68.56-.43C275.25,415,275.32,414.92,275.33,414.93Z" style="fill:#fafafa"></path></g><g id="freepik--Plant--inject-74"><rect x="612.02" y="370.15" width="88.75" height="12.19" style="fill:#263238"></rect><path d="M700.92,382.5H611.86V370h89.06Zm-88.75-.31h88.45V370.3H612.17Z" style="fill:#263238"></path><polygon points="620.24 378.29 633.02 441.31 680.29 441.31 692.64 382.34 620.24 378.29" style="fill:#263238"></polygon><polygon points="620.24 435.35 627.06 444.72 684.51 444.72 692.64 435.35 620.24 435.35" style="fill:#455a64"></polygon><path d="M653.06,380.13c-.18,0-.4-29.2-.5-65.21s0-65.21.13-65.21.4,29.19.5,65.21S653.23,380.13,653.06,380.13Z" style="fill:#263238"></path><path d="M672.83,307.06a2.91,2.91,0,0,1-.24.68c-.21.49-.47,1.12-.79,1.89-.18.41-.37.87-.58,1.36l-.59,1.66c-.22.59-.44,1.23-.69,1.9s-.42,1.41-.65,2.17a87.42,87.42,0,0,0-2.48,10.86,132.92,132.92,0,0,0-1.38,13.59,184.36,184.36,0,0,0,.7,24.82c.29,3.17.58,5.73.79,7.5.09.83.16,1.5.22,2a3.88,3.88,0,0,1,0,.72,2.66,2.66,0,0,1-.17-.7l-.34-2c-.28-1.76-.64-4.31-1-7.48a164,164,0,0,1-.89-24.9,122.93,122.93,0,0,1,1.43-13.65,82.75,82.75,0,0,1,2.63-10.91c.25-.76.45-1.49.7-2.16l.74-1.9.64-1.65c.22-.49.44-.94.63-1.34l.91-1.85A2.8,2.8,0,0,1,672.83,307.06Z" style="fill:#263238"></path><path d="M670.56,283.45a7.2,7.2,0,0,1-.28,1l-.93,2.71c-.2.6-.43,1.25-.68,2s-.45,1.51-.71,2.36c-.52,1.69-1.12,3.61-1.65,5.77-.29,1.07-.59,2.2-.9,3.37s-.54,2.42-.83,3.69c-.62,2.54-1.06,5.31-1.64,8.19-1,5.8-1.84,12.21-2.43,19s-.81,13.24-.89,19.12.06,11.18.3,15.63c.08,2.22.22,4.23.33,6s.22,3.29.33,4.53.16,2.15.22,2.86a6.29,6.29,0,0,1,0,1,5.76,5.76,0,0,1-.16-1c-.08-.71-.2-1.66-.34-2.85s-.29-2.75-.43-4.52-.32-3.77-.43-6c-.3-4.45-.42-9.76-.43-15.66s.28-12.38.84-19.16,1.48-13.21,2.49-19c.59-2.89,1.06-5.66,1.7-8.2l.87-3.7c.33-1.17.64-2.3.93-3.37.57-2.16,1.2-4.08,1.75-5.76.28-.84.53-1.62.77-2.35s.51-1.35.73-1.94c.44-1.12.78-2,1-2.68A5.19,5.19,0,0,1,670.56,283.45Z" style="fill:#263238"></path><path d="M647.44,385.29a2.15,2.15,0,0,1-.05-.34c0-.26,0-.59-.08-1-.06-.94-.15-2.23-.26-3.87-.21-3.41-.52-8.25-.89-14.22-.77-12-1.88-28.6-3.9-46.84-1-9.12-2.23-17.78-3.48-25.63-.66-3.92-1.26-7.65-1.94-11.12s-1.3-6.71-1.92-9.65-1.23-5.59-1.75-7.92-1-4.33-1.43-6l-.92-3.76c-.09-.4-.17-.73-.23-1a1.76,1.76,0,0,1-.05-.35,1.4,1.4,0,0,1,.11.33c.08.25.17.57.29,1,.25.89.6,2.14,1,3.73s1,3.61,1.53,5.94,1.24,5,1.85,7.91,1.35,6.16,2,9.64,1.33,7.2,2,11.12c1.27,7.86,2.49,16.53,3.52,25.66,2,18.26,3.07,34.86,3.73,46.88.32,6,.55,10.87.69,14.24.06,1.64.1,2.94.14,3.87,0,.41,0,.74,0,1S647.46,385.29,647.44,385.29Z" style="fill:#263238"></path><path d="M652.33,263.74c-.38-4.13-4.56-7.25-8.72-7.3s-8,2.45-10.56,5.74-3.94,7.3-5.09,11.29c-2.8,9.75-4.33,20-3.13,30s5.28,20,12.5,27.1c1.18,1.15,2.7,2.31,4.31,2a5.19,5.19,0,0,0,2.28-1.4A67.25,67.25,0,0,0,665.74,280c-.11-3.83-.61-7.81-2.73-11s-7.07-6.58-10.68-5.3" style="fill:#FF725E"></path><path d="M621.32,230.61q-2.94,5.29-5.86,10.6c-.13.24-.31.52-.59.54s-.54-.26-.71-.52l-15.47-23.74,3.57-2Z" style="fill:#FF725E"></path><g style="opacity:0.2"><path d="M621.32,230.61q-2.94,5.29-5.86,10.6c-.13.24-.31.52-.59.54s-.54-.26-.71-.52l-15.47-23.74,3.57-2Z"></path></g><path d="M652.69,249.7l-52.76-31.13c-.54-.32-1.13-.69-1.29-1.3-.21-.78.38-1.53.94-2.11a36.36,36.36,0,0,1,28.2-11.08c10.4.75,20.4,6.76,25.49,15.85s5.26,21.14-.58,29.77" style="fill:#FF725E"></path><path d="M607.53,208.63a3.23,3.23,0,0,1,.69-.09c.46,0,1.13-.1,2-.09a39.9,39.9,0,0,1,7.32.58A42.71,42.71,0,0,1,628,212.2a42.76,42.76,0,0,1,23.73,27.73,39.94,39.94,0,0,1,1.31,7.23c.09.86.08,1.54.1,2a2.35,2.35,0,0,1,0,.7c-.05,0-.12-.95-.33-2.66a43.32,43.32,0,0,0-35.29-37.72,46.07,46.07,0,0,0-7.25-.78C608.49,208.66,607.53,208.69,607.53,208.63Z" style="fill:#263238"></path><path d="M645.55,228.21a13.06,13.06,0,0,1-2.67,1.22c-1.68.66-4,1.51-6.66,2.34s-5,1.5-6.79,1.93a12.77,12.77,0,0,1-2.88.55,14.33,14.33,0,0,1,2.76-1l6.72-2.1,6.7-2.16A14.65,14.65,0,0,1,645.55,228.21Z" style="fill:#263238"></path><path d="M637.24,205.89c.17,0,.54,2.62.62,5.89s-.15,5.92-.32,5.91-.22-2.64-.31-5.89S637.06,205.91,637.24,205.89Z" style="fill:#263238"></path><path d="M599.46,218a24.22,24.22,0,0,1,3.84-1.35c2.4-.74,5.73-1.68,9.46-2.57s7.12-1.59,9.59-2a23,23,0,0,1,4-.54,30.91,30.91,0,0,1-3.93,1c-2.45.54-5.82,1.3-9.54,2.19s-7.06,1.76-9.48,2.39A28.89,28.89,0,0,1,599.46,218Z" style="fill:#263238"></path><path d="M628.36,254c-4.54-3.44-9.34-4.12-15-3.89a45.83,45.83,0,0,0-16.44,4.24c-8.9,3.9-17.26,9.64-22.58,17.77s-7.17,18.89-3.19,27.76a4,4,0,0,0,1.81,2.18,4.27,4.27,0,0,0,3-.23c10.12-3.3,20.31-6.63,29.62-11.8s17.77-12.36,22.77-21.76a18.67,18.67,0,0,0,2.39-7.22,8.94,8.94,0,0,0-2.32-7.05" style="fill:#FF725E"></path><path d="M628.45,252.88a3.08,3.08,0,0,1-.73.3l-2.12.73-1.53.51c-.56.2-1.15.45-1.8.7-1.28.52-2.76,1-4.33,1.79-.79.37-1.62.74-2.48,1.13s-1.72.89-2.63,1.35c-1.83.91-3.69,2.06-5.67,3.22a100,100,0,0,0-12,8.89,99,99,0,0,0-10.34,10.75c-1.41,1.82-2.79,3.51-3.91,5.21-.58.85-1.17,1.64-1.68,2.44l-1.44,2.32c-.95,1.45-1.65,2.86-2.33,4.07-.33.6-.65,1.16-.92,1.69l-.7,1.45-1,2a3.69,3.69,0,0,1-.38.69,3.45,3.45,0,0,1,.27-.74l.89-2.06c.2-.45.41-.95.65-1.49s.56-1.1.88-1.72c.65-1.22,1.33-2.65,2.26-4.13l1.41-2.35c.5-.82,1.08-1.62,1.65-2.47,1.12-1.73,2.49-3.45,3.9-5.28a86.5,86.5,0,0,1,22.47-19.77c2-1.16,3.87-2.3,5.73-3.19.92-.46,1.79-.94,2.66-1.33l2.51-1.1c1.59-.73,3.09-1.22,4.39-1.71.65-.24,1.25-.47,1.82-.65l1.56-.47,2.16-.61A3.61,3.61,0,0,1,628.45,252.88Z" style="fill:#263238"></path><path d="M593,272.08c0,.17-4.9,1.76-11,3.56s-11.17,3.12-11.22,2.95,4.89-1.76,11-3.56S593,271.91,593,272.08Z" style="fill:#263238"></path><path d="M592.54,296.44a18.59,18.59,0,0,1-.24-3.44c-.06-2.12-.07-5.06,0-8.31s.27-6.18.44-8.3a17.13,17.13,0,0,1,.44-3.42,20.06,20.06,0,0,1,0,3.45c-.07,2.33-.16,5.16-.25,8.29s-.15,6-.21,8.29A19.54,19.54,0,0,1,592.54,296.44Z" style="fill:#263238"></path><path d="M613.41,285.81c-.17,0-.73-6-1.24-13.34s-.78-13.37-.61-13.38.73,6,1.24,13.34S613.58,285.8,613.41,285.81Z" style="fill:#263238"></path><path d="M587.44,258.51a18.44,18.44,0,0,1,3.53-.11c2.19,0,5.2.08,8.52.19s6.34.24,8.52.37a20.76,20.76,0,0,1,3.52.34,19.53,19.53,0,0,1-3.53.11c-2.19,0-5.2-.08-8.53-.19s-6.34-.24-8.52-.37A20.36,20.36,0,0,1,587.44,258.51Z" style="fill:#263238"></path><path d="M639.6,333.46a3.2,3.2,0,0,1-.08-.72c0-.55,0-1.23-.09-2.08-.08-1.8-.1-4.41,0-7.63s.27-7.06.65-11.3,1-8.9,1.86-13.75,1.92-9.41,3-13.54,2.23-7.79,3.29-10.83,2-5.49,2.67-7.16c.32-.78.59-1.41.8-1.91a.36.36,0,1,1,.12,0l-.69,2c-.63,1.69-1.48,4.15-2.47,7.21s-2.08,6.73-3.16,10.84-2.07,8.68-2.94,13.5-1.46,9.47-1.9,13.69-.67,8.05-.78,11.26-.18,5.82-.17,7.62q0,1.26,0,2.07A3.18,3.18,0,0,1,639.6,333.46Z" style="fill:#263238"></path><path d="M642.38,297.45a14.33,14.33,0,0,1-2.1,2.32c-1.37,1.36-3.31,3.18-5.52,5.12s-4.28,3.63-5.81,4.8a13.68,13.68,0,0,1-2.56,1.78,16.62,16.62,0,0,1,2.28-2.13c1.62-1.4,3.55-3.07,5.67-4.92l5.63-5A16.65,16.65,0,0,1,642.38,297.45Z" style="fill:#263238"></path><path d="M659.08,310.91a25.29,25.29,0,0,1-2.24-3.11l-5.21-7.61c-2-2.86-3.85-5.45-5.33-7.53a27.11,27.11,0,0,1-2.13-3.18,20.79,20.79,0,0,1,2.49,2.91c1.47,1.86,3.42,4.48,5.49,7.44s3.83,5.71,5.07,7.73A20.43,20.43,0,0,1,659.08,310.91Z" style="fill:#263238"></path><path d="M650.33,268.6c.1.14-5.45,3.88-12.39,8.34s-12.64,8-12.73,7.81,5.45-3.88,12.39-8.34S650.24,268.45,650.33,268.6Z" style="fill:#263238"></path><path d="M666,285.48c-.12.13-3.88-3.35-8.39-7.75s-8.08-8.08-8-8.21,3.87,3.35,8.39,7.76S666.1,285.36,666,285.48Z" style="fill:#263238"></path><path d="M669.91,285.14l4.76-.39a23.47,23.47,0,0,0,9.62-2.95,39.21,39.21,0,0,1,4.49-2.25c5.88-2.36,12.45-1.94,18.79-2.26a77.68,77.68,0,0,0,29.9-7.64,2.87,2.87,0,0,0,1.3-1.18c1-1.79-.84-3.37-2.4-4.34-8-4.94-16.19-9.95-25.29-12.4s-19.43-2-27.19,3.3c-9.12,6.27-12.44,19.16-14,30.11" style="fill:#FF725E"></path><path d="M738.88,267.88a4.72,4.72,0,0,1-.81-.37l-2.25-1.19c-2-1-4.78-2.55-8.34-4.25a78.14,78.14,0,0,0-12.91-5,42.47,42.47,0,0,0-16.73-1.35,28.63,28.63,0,0,0-15.25,6.54,34.1,34.1,0,0,0-7.94,11.16C673,277,672,280,671.2,282.12c-.35,1-.64,1.8-.85,2.4a5.09,5.09,0,0,1-.33.83,4.49,4.49,0,0,1,.21-.86c.19-.62.43-1.43.73-2.45a78.65,78.65,0,0,1,3.29-8.79,33.77,33.77,0,0,1,8-11.4,28.88,28.88,0,0,1,15.55-6.74,42.49,42.49,0,0,1,17,1.42,75.1,75.1,0,0,1,12.94,5.13c3.55,1.77,6.34,3.35,8.26,4.45l2.2,1.28A4.6,4.6,0,0,1,738.88,267.88Z" style="fill:#263238"></path><path d="M727.44,274c-.1.14-6.32-3.89-13.91-9s-13.66-9.38-13.56-9.53,6.33,3.89,13.91,9S727.54,273.88,727.44,274Z" style="fill:#263238"></path><path d="M721.46,254.91a15.15,15.15,0,0,1-4.86,1c-2.74.26-5,.1-5-.07s2.2-.31,4.9-.56S721.43,254.73,721.46,254.91Z" style="fill:#263238"></path><path d="M693.53,249.9c.15.09-.76,1.92-2,4.09s-2.44,3.85-2.59,3.76.76-1.91,2-4.08S693.38,249.81,693.53,249.9Z" style="fill:#263238"></path><path d="M699.11,277.7a17.14,17.14,0,0,1-3-1.63c-1.8-1.09-4.23-2.69-6.83-4.58s-4.89-3.67-6.53-5a18.19,18.19,0,0,1-2.59-2.21,17.89,17.89,0,0,1,2.86,1.86l6.64,4.82c2.59,1.88,5,3.53,6.7,4.71A19.8,19.8,0,0,1,699.11,277.7Z" style="fill:#263238"></path><path d="M676.92,305.38c-4.54-1.2-9.95,3.22-10.89,7.82s.79,9.31,2.81,13.56c4.48,9.39,10.65,18.09,18.79,24.58S706,362,716.35,361.91c-1.92-8.92.51-18.24-.56-27.3a35.51,35.51,0,0,0-31.45-31.14c-2.9-.32-6.26-.77-7.42,1.91" style="fill:#FF725E"></path><path d="M716.35,361.91a2.67,2.67,0,0,1-.64-.3,11.57,11.57,0,0,1-1.7-1.14,17.71,17.71,0,0,1-4.49-6c-.72-1.41-1.53-2.93-2.32-4.62l-2.45-5.41a52.23,52.23,0,0,0-3-5.77,45.43,45.43,0,0,0-4.13-5.62c-3.11-3.66-6.45-6.82-9.34-9.84a63.85,63.85,0,0,1-7.13-8.54,32,32,0,0,1-3.48-6.65,19.39,19.39,0,0,1-.6-1.94,3.17,3.17,0,0,1-.15-.7c.06,0,.32.93,1,2.55a34.54,34.54,0,0,0,3.62,6.49,68.54,68.54,0,0,0,7.17,8.39c2.91,3,6.27,6.14,9.41,9.83a44.28,44.28,0,0,1,4.18,5.71,50.71,50.71,0,0,1,3,5.85l2.39,5.43c.76,1.68,1.55,3.22,2.25,4.63a18.36,18.36,0,0,0,4.24,6C715.49,361.42,716.39,361.85,716.35,361.91Z" style="fill:#263238"></path><path d="M692.86,354.5a13.66,13.66,0,0,1,.42-3.06c.35-1.87.94-4.44,1.72-7.24s1.64-5.29,2.31-7.07a13.23,13.23,0,0,1,1.24-2.83,17.48,17.48,0,0,1-.82,3c-.56,1.81-1.33,4.32-2.12,7.1s-1.43,5.33-1.9,7.17A16.17,16.17,0,0,1,692.86,354.5Z" style="fill:#263238"></path><path d="M715.49,332.6a18.22,18.22,0,0,1-3.2-.73c-2-.52-4.66-1.22-7.67-1.89s-5.75-1.21-7.73-1.58a19.14,19.14,0,0,1-3.21-.71A15.8,15.8,0,0,1,697,328c2,.27,4.78.73,7.8,1.41s5.73,1.45,7.66,2.08A15.09,15.09,0,0,1,715.49,332.6Z" style="fill:#263238"></path><path d="M676,339a19.8,19.8,0,0,1,.49-3.54c.4-2.16,1-5.15,1.89-8.4s1.75-6.17,2.46-8.26a19.06,19.06,0,0,1,1.31-3.33,23,23,0,0,1-.88,3.46c-.6,2.12-1.43,5-2.28,8.29s-1.55,6.2-2.06,8.34A21.08,21.08,0,0,1,676,339Z" style="fill:#263238"></path><path d="M705.07,313.52c0,.17-5.69-.29-12.67-1s-12.61-1.48-12.6-1.65,5.69.29,12.67,1S705.09,313.35,705.07,313.52Z" style="fill:#263238"></path><path d="M700.91,382.29c0,.18-19.93.32-44.52.32s-44.52-.14-44.52-.32,19.93-.31,44.52-.31S700.91,382.12,700.91,382.29Z" style="fill:#455a64"></path><path d="M687.05,408c0,.17-13.44.31-30,.31s-30-.14-30-.31,13.43-.32,30-.32S687.05,407.77,687.05,408Z" style="fill:#455a64"></path><path d="M687.57,411.61c0,.18-13.43.32-30,.32s-30-.14-30-.32,13.43-.31,30-.31S687.57,411.44,687.57,411.61Z" style="fill:#455a64"></path><path d="M687.57,404.92c0,.18-13.89.32-31,.32s-31-.14-31-.32,13.89-.31,31-.31S687.57,404.75,687.57,404.92Z" style="fill:#455a64"></path></g></svg>
